<mxfile host="65bd71144e">
    <diagram id="DPbVRmB0eWtrBDgl4CF8" name="ER図">
        <mxGraphModel dx="746" dy="419" grid="1" gridSize="10" guides="1" tooltips="1" connect="1" arrows="1" fold="1" page="1" pageScale="1" pageWidth="1169" pageHeight="827" math="0" shadow="0">
            <root>
                <mxCell id="0"/>
                <mxCell id="1" parent="0"/>
                <mxCell id="1b0Jubcj0DxyAnrPYgUr-1" value="USERS" style="shape=table;startSize=30;container=1;collapsible=1;childLayout=tableLayout;fixedRows=1;rowLines=0;fontStyle=1;align=center;resizeLast=1;" parent="1" vertex="1">
                    <mxGeometry x="100" y="70" width="180" height="180" as="geometry"/>
                </mxCell>
                <mxCell id="1b0Jubcj0DxyAnrPYgUr-2" value="" style="shape=tableRow;horizontal=0;startSize=0;swimlaneHead=0;swimlaneBody=0;fillColor=none;collapsible=0;dropTarget=0;points=[[0,0.5],[1,0.5]];portConstraint=eastwest;top=0;left=0;right=0;bottom=1;" parent="1b0Jubcj0DxyAnrPYgUr-1" vertex="1">
                    <mxGeometry y="30" width="180" height="30" as="geometry"/>
                </mxCell>
                <mxCell id="1b0Jubcj0DxyAnrPYgUr-3" value="PK" style="shape=partialRectangle;connectable=0;fillColor=none;top=0;left=0;bottom=0;right=0;fontStyle=1;overflow=hidden;" parent="1b0Jubcj0DxyAnrPYgUr-2" vertex="1">
                    <mxGeometry width="30" height="30" as="geometry">
                        <mxRectangle width="30" height="30" as="alternateBounds"/>
                    </mxGeometry>
                </mxCell>
                <mxCell id="1b0Jubcj0DxyAnrPYgUr-4" value="USER_ID" style="shape=partialRectangle;connectable=0;fillColor=none;top=0;left=0;bottom=0;right=0;align=left;spacingLeft=6;fontStyle=5;overflow=hidden;" parent="1b0Jubcj0DxyAnrPYgUr-2" vertex="1">
                    <mxGeometry x="30" width="150" height="30" as="geometry">
                        <mxRectangle width="150" height="30" as="alternateBounds"/>
                    </mxGeometry>
                </mxCell>
                <mxCell id="1b0Jubcj0DxyAnrPYgUr-5" value="" style="shape=tableRow;horizontal=0;startSize=0;swimlaneHead=0;swimlaneBody=0;fillColor=none;collapsible=0;dropTarget=0;points=[[0,0.5],[1,0.5]];portConstraint=eastwest;top=0;left=0;right=0;bottom=0;" parent="1b0Jubcj0DxyAnrPYgUr-1" vertex="1">
                    <mxGeometry y="60" width="180" height="30" as="geometry"/>
                </mxCell>
                <mxCell id="1b0Jubcj0DxyAnrPYgUr-6" value="" style="shape=partialRectangle;connectable=0;fillColor=none;top=0;left=0;bottom=0;right=0;editable=1;overflow=hidden;" parent="1b0Jubcj0DxyAnrPYgUr-5" vertex="1">
                    <mxGeometry width="30" height="30" as="geometry">
                        <mxRectangle width="30" height="30" as="alternateBounds"/>
                    </mxGeometry>
                </mxCell>
                <mxCell id="1b0Jubcj0DxyAnrPYgUr-7" value="PASS" style="shape=partialRectangle;connectable=0;fillColor=none;top=0;left=0;bottom=0;right=0;align=left;spacingLeft=6;overflow=hidden;" parent="1b0Jubcj0DxyAnrPYgUr-5" vertex="1">
                    <mxGeometry x="30" width="150" height="30" as="geometry">
                        <mxRectangle width="150" height="30" as="alternateBounds"/>
                    </mxGeometry>
                </mxCell>
                <mxCell id="1b0Jubcj0DxyAnrPYgUr-8" value="" style="shape=tableRow;horizontal=0;startSize=0;swimlaneHead=0;swimlaneBody=0;fillColor=none;collapsible=0;dropTarget=0;points=[[0,0.5],[1,0.5]];portConstraint=eastwest;top=0;left=0;right=0;bottom=0;" parent="1b0Jubcj0DxyAnrPYgUr-1" vertex="1">
                    <mxGeometry y="90" width="180" height="30" as="geometry"/>
                </mxCell>
                <mxCell id="1b0Jubcj0DxyAnrPYgUr-9" value="" style="shape=partialRectangle;connectable=0;fillColor=none;top=0;left=0;bottom=0;right=0;editable=1;overflow=hidden;" parent="1b0Jubcj0DxyAnrPYgUr-8" vertex="1">
                    <mxGeometry width="30" height="30" as="geometry">
                        <mxRectangle width="30" height="30" as="alternateBounds"/>
                    </mxGeometry>
                </mxCell>
                <mxCell id="1b0Jubcj0DxyAnrPYgUr-10" value="USER_NAME" style="shape=partialRectangle;connectable=0;fillColor=none;top=0;left=0;bottom=0;right=0;align=left;spacingLeft=6;overflow=hidden;" parent="1b0Jubcj0DxyAnrPYgUr-8" vertex="1">
                    <mxGeometry x="30" width="150" height="30" as="geometry">
                        <mxRectangle width="150" height="30" as="alternateBounds"/>
                    </mxGeometry>
                </mxCell>
                <mxCell id="1b0Jubcj0DxyAnrPYgUr-11" value="" style="shape=tableRow;horizontal=0;startSize=0;swimlaneHead=0;swimlaneBody=0;fillColor=none;collapsible=0;dropTarget=0;points=[[0,0.5],[1,0.5]];portConstraint=eastwest;top=0;left=0;right=0;bottom=0;" parent="1b0Jubcj0DxyAnrPYgUr-1" vertex="1">
                    <mxGeometry y="120" width="180" height="30" as="geometry"/>
                </mxCell>
                <mxCell id="1b0Jubcj0DxyAnrPYgUr-12" value="" style="shape=partialRectangle;connectable=0;fillColor=none;top=0;left=0;bottom=0;right=0;editable=1;overflow=hidden;" parent="1b0Jubcj0DxyAnrPYgUr-11" vertex="1">
                    <mxGeometry width="30" height="30" as="geometry">
                        <mxRectangle width="30" height="30" as="alternateBounds"/>
                    </mxGeometry>
                </mxCell>
                <mxCell id="1b0Jubcj0DxyAnrPYgUr-13" value="MAIL" style="shape=partialRectangle;connectable=0;fillColor=none;top=0;left=0;bottom=0;right=0;align=left;spacingLeft=6;overflow=hidden;" parent="1b0Jubcj0DxyAnrPYgUr-11" vertex="1">
                    <mxGeometry x="30" width="150" height="30" as="geometry">
                        <mxRectangle width="150" height="30" as="alternateBounds"/>
                    </mxGeometry>
                </mxCell>
                <mxCell id="1b0Jubcj0DxyAnrPYgUr-14" style="shape=tableRow;horizontal=0;startSize=0;swimlaneHead=0;swimlaneBody=0;fillColor=none;collapsible=0;dropTarget=0;points=[[0,0.5],[1,0.5]];portConstraint=eastwest;top=0;left=0;right=0;bottom=0;" parent="1b0Jubcj0DxyAnrPYgUr-1" vertex="1">
                    <mxGeometry y="150" width="180" height="30" as="geometry"/>
                </mxCell>
                <mxCell id="1b0Jubcj0DxyAnrPYgUr-15" style="shape=partialRectangle;connectable=0;fillColor=none;top=0;left=0;bottom=0;right=0;editable=1;overflow=hidden;" parent="1b0Jubcj0DxyAnrPYgUr-14" vertex="1">
                    <mxGeometry width="30" height="30" as="geometry">
                        <mxRectangle width="30" height="30" as="alternateBounds"/>
                    </mxGeometry>
                </mxCell>
                <mxCell id="1b0Jubcj0DxyAnrPYgUr-16" value="DATEOFBIRTH" style="shape=partialRectangle;connectable=0;fillColor=none;top=0;left=0;bottom=0;right=0;align=left;spacingLeft=6;overflow=hidden;" parent="1b0Jubcj0DxyAnrPYgUr-14" vertex="1">
                    <mxGeometry x="30" width="150" height="30" as="geometry">
                        <mxRectangle width="150" height="30" as="alternateBounds"/>
                    </mxGeometry>
                </mxCell>
                <mxCell id="1b0Jubcj0DxyAnrPYgUr-17" value="TASKS" style="shape=table;startSize=30;container=1;collapsible=1;childLayout=tableLayout;fixedRows=1;rowLines=0;fontStyle=1;align=center;resizeLast=1;" parent="1" vertex="1">
                    <mxGeometry x="450" y="70" width="220" height="300" as="geometry"/>
                </mxCell>
                <mxCell id="1b0Jubcj0DxyAnrPYgUr-18" value="" style="shape=tableRow;horizontal=0;startSize=0;swimlaneHead=0;swimlaneBody=0;fillColor=none;collapsible=0;dropTarget=0;points=[[0,0.5],[1,0.5]];portConstraint=eastwest;top=0;left=0;right=0;bottom=1;" parent="1b0Jubcj0DxyAnrPYgUr-17" vertex="1">
                    <mxGeometry y="30" width="220" height="30" as="geometry"/>
                </mxCell>
                <mxCell id="1b0Jubcj0DxyAnrPYgUr-19" value="PK" style="shape=partialRectangle;connectable=0;fillColor=none;top=0;left=0;bottom=0;right=0;fontStyle=1;overflow=hidden;" parent="1b0Jubcj0DxyAnrPYgUr-18" vertex="1">
                    <mxGeometry width="30" height="30" as="geometry">
                        <mxRectangle width="30" height="30" as="alternateBounds"/>
                    </mxGeometry>
                </mxCell>
                <mxCell id="1b0Jubcj0DxyAnrPYgUr-20" value="TASK_ID" style="shape=partialRectangle;connectable=0;fillColor=none;top=0;left=0;bottom=0;right=0;align=left;spacingLeft=6;fontStyle=5;overflow=hidden;" parent="1b0Jubcj0DxyAnrPYgUr-18" vertex="1">
                    <mxGeometry x="30" width="190" height="30" as="geometry">
                        <mxRectangle width="190" height="30" as="alternateBounds"/>
                    </mxGeometry>
                </mxCell>
                <mxCell id="1b0Jubcj0DxyAnrPYgUr-21" value="" style="shape=tableRow;horizontal=0;startSize=0;swimlaneHead=0;swimlaneBody=0;fillColor=none;collapsible=0;dropTarget=0;points=[[0,0.5],[1,0.5]];portConstraint=eastwest;top=0;left=0;right=0;bottom=0;" parent="1b0Jubcj0DxyAnrPYgUr-17" vertex="1">
                    <mxGeometry y="60" width="220" height="30" as="geometry"/>
                </mxCell>
                <mxCell id="1b0Jubcj0DxyAnrPYgUr-22" value="" style="shape=partialRectangle;connectable=0;fillColor=none;top=0;left=0;bottom=0;right=0;editable=1;overflow=hidden;" parent="1b0Jubcj0DxyAnrPYgUr-21" vertex="1">
                    <mxGeometry width="30" height="30" as="geometry">
                        <mxRectangle width="30" height="30" as="alternateBounds"/>
                    </mxGeometry>
                </mxCell>
                <mxCell id="1b0Jubcj0DxyAnrPYgUr-23" value="USER_ID(FK)" style="shape=partialRectangle;connectable=0;fillColor=none;top=0;left=0;bottom=0;right=0;align=left;spacingLeft=6;overflow=hidden;" parent="1b0Jubcj0DxyAnrPYgUr-21" vertex="1">
                    <mxGeometry x="30" width="190" height="30" as="geometry">
                        <mxRectangle width="190" height="30" as="alternateBounds"/>
                    </mxGeometry>
                </mxCell>
                <mxCell id="1b0Jubcj0DxyAnrPYgUr-24" value="" style="shape=tableRow;horizontal=0;startSize=0;swimlaneHead=0;swimlaneBody=0;fillColor=none;collapsible=0;dropTarget=0;points=[[0,0.5],[1,0.5]];portConstraint=eastwest;top=0;left=0;right=0;bottom=0;" parent="1b0Jubcj0DxyAnrPYgUr-17" vertex="1">
                    <mxGeometry y="90" width="220" height="30" as="geometry"/>
                </mxCell>
                <mxCell id="1b0Jubcj0DxyAnrPYgUr-25" value="" style="shape=partialRectangle;connectable=0;fillColor=none;top=0;left=0;bottom=0;right=0;editable=1;overflow=hidden;" parent="1b0Jubcj0DxyAnrPYgUr-24" vertex="1">
                    <mxGeometry width="30" height="30" as="geometry">
                        <mxRectangle width="30" height="30" as="alternateBounds"/>
                    </mxGeometry>
                </mxCell>
                <mxCell id="1b0Jubcj0DxyAnrPYgUr-26" value="TASKGROUP_ID(FK)" style="shape=partialRectangle;connectable=0;fillColor=none;top=0;left=0;bottom=0;right=0;align=left;spacingLeft=6;overflow=hidden;" parent="1b0Jubcj0DxyAnrPYgUr-24" vertex="1">
                    <mxGeometry x="30" width="190" height="30" as="geometry">
                        <mxRectangle width="190" height="30" as="alternateBounds"/>
                    </mxGeometry>
                </mxCell>
                <mxCell id="1b0Jubcj0DxyAnrPYgUr-27" value="" style="shape=tableRow;horizontal=0;startSize=0;swimlaneHead=0;swimlaneBody=0;fillColor=none;collapsible=0;dropTarget=0;points=[[0,0.5],[1,0.5]];portConstraint=eastwest;top=0;left=0;right=0;bottom=0;" parent="1b0Jubcj0DxyAnrPYgUr-17" vertex="1">
                    <mxGeometry y="120" width="220" height="30" as="geometry"/>
                </mxCell>
                <mxCell id="1b0Jubcj0DxyAnrPYgUr-28" value="" style="shape=partialRectangle;connectable=0;fillColor=none;top=0;left=0;bottom=0;right=0;editable=1;overflow=hidden;" parent="1b0Jubcj0DxyAnrPYgUr-27" vertex="1">
                    <mxGeometry width="30" height="30" as="geometry">
                        <mxRectangle width="30" height="30" as="alternateBounds"/>
                    </mxGeometry>
                </mxCell>
                <mxCell id="1b0Jubcj0DxyAnrPYgUr-29" value="TASK_CONTENT" style="shape=partialRectangle;connectable=0;fillColor=none;top=0;left=0;bottom=0;right=0;align=left;spacingLeft=6;overflow=hidden;" parent="1b0Jubcj0DxyAnrPYgUr-27" vertex="1">
                    <mxGeometry x="30" width="190" height="30" as="geometry">
                        <mxRectangle width="190" height="30" as="alternateBounds"/>
                    </mxGeometry>
                </mxCell>
                <mxCell id="6N5-DmN8dOFTA5ozrisZ-4" style="shape=tableRow;horizontal=0;startSize=0;swimlaneHead=0;swimlaneBody=0;fillColor=none;collapsible=0;dropTarget=0;points=[[0,0.5],[1,0.5]];portConstraint=eastwest;top=0;left=0;right=0;bottom=0;" parent="1b0Jubcj0DxyAnrPYgUr-17" vertex="1">
                    <mxGeometry y="150" width="220" height="30" as="geometry"/>
                </mxCell>
                <mxCell id="6N5-DmN8dOFTA5ozrisZ-5" style="shape=partialRectangle;connectable=0;fillColor=none;top=0;left=0;bottom=0;right=0;editable=1;overflow=hidden;" parent="6N5-DmN8dOFTA5ozrisZ-4" vertex="1">
                    <mxGeometry width="30" height="30" as="geometry">
                        <mxRectangle width="30" height="30" as="alternateBounds"/>
                    </mxGeometry>
                </mxCell>
                <mxCell id="6N5-DmN8dOFTA5ozrisZ-6" value="REGISTER_DATE" style="shape=partialRectangle;connectable=0;fillColor=none;top=0;left=0;bottom=0;right=0;align=left;spacingLeft=6;overflow=hidden;" parent="6N5-DmN8dOFTA5ozrisZ-4" vertex="1">
                    <mxGeometry x="30" width="190" height="30" as="geometry">
                        <mxRectangle width="190" height="30" as="alternateBounds"/>
                    </mxGeometry>
                </mxCell>
                <mxCell id="1b0Jubcj0DxyAnrPYgUr-30" style="shape=tableRow;horizontal=0;startSize=0;swimlaneHead=0;swimlaneBody=0;fillColor=none;collapsible=0;dropTarget=0;points=[[0,0.5],[1,0.5]];portConstraint=eastwest;top=0;left=0;right=0;bottom=0;" parent="1b0Jubcj0DxyAnrPYgUr-17" vertex="1">
                    <mxGeometry y="180" width="220" height="30" as="geometry"/>
                </mxCell>
                <mxCell id="1b0Jubcj0DxyAnrPYgUr-31" style="shape=partialRectangle;connectable=0;fillColor=none;top=0;left=0;bottom=0;right=0;editable=1;overflow=hidden;" parent="1b0Jubcj0DxyAnrPYgUr-30" vertex="1">
                    <mxGeometry width="30" height="30" as="geometry">
                        <mxRectangle width="30" height="30" as="alternateBounds"/>
                    </mxGeometry>
                </mxCell>
                <mxCell id="1b0Jubcj0DxyAnrPYgUr-32" value="TENTATIVE_START_DATETIME" style="shape=partialRectangle;connectable=0;fillColor=none;top=0;left=0;bottom=0;right=0;align=left;spacingLeft=6;overflow=hidden;" parent="1b0Jubcj0DxyAnrPYgUr-30" vertex="1">
                    <mxGeometry x="30" width="190" height="30" as="geometry">
                        <mxRectangle width="190" height="30" as="alternateBounds"/>
                    </mxGeometry>
                </mxCell>
                <mxCell id="1b0Jubcj0DxyAnrPYgUr-34" style="shape=tableRow;horizontal=0;startSize=0;swimlaneHead=0;swimlaneBody=0;fillColor=none;collapsible=0;dropTarget=0;points=[[0,0.5],[1,0.5]];portConstraint=eastwest;top=0;left=0;right=0;bottom=0;" parent="1b0Jubcj0DxyAnrPYgUr-17" vertex="1">
                    <mxGeometry y="210" width="220" height="30" as="geometry"/>
                </mxCell>
                <mxCell id="1b0Jubcj0DxyAnrPYgUr-35" style="shape=partialRectangle;connectable=0;fillColor=none;top=0;left=0;bottom=0;right=0;editable=1;overflow=hidden;" parent="1b0Jubcj0DxyAnrPYgUr-34" vertex="1">
                    <mxGeometry width="30" height="30" as="geometry">
                        <mxRectangle width="30" height="30" as="alternateBounds"/>
                    </mxGeometry>
                </mxCell>
                <mxCell id="1b0Jubcj0DxyAnrPYgUr-36" value="TENTATIVE_END_DATETIME" style="shape=partialRectangle;connectable=0;fillColor=none;top=0;left=0;bottom=0;right=0;align=left;spacingLeft=6;overflow=hidden;" parent="1b0Jubcj0DxyAnrPYgUr-34" vertex="1">
                    <mxGeometry x="30" width="190" height="30" as="geometry">
                        <mxRectangle width="190" height="30" as="alternateBounds"/>
                    </mxGeometry>
                </mxCell>
                <mxCell id="ygxjlyTsQvrE2GG9qdcO-4" style="shape=tableRow;horizontal=0;startSize=0;swimlaneHead=0;swimlaneBody=0;fillColor=none;collapsible=0;dropTarget=0;points=[[0,0.5],[1,0.5]];portConstraint=eastwest;top=0;left=0;right=0;bottom=0;" parent="1b0Jubcj0DxyAnrPYgUr-17" vertex="1">
                    <mxGeometry y="240" width="220" height="30" as="geometry"/>
                </mxCell>
                <mxCell id="ygxjlyTsQvrE2GG9qdcO-5" style="shape=partialRectangle;connectable=0;fillColor=none;top=0;left=0;bottom=0;right=0;editable=1;overflow=hidden;" parent="ygxjlyTsQvrE2GG9qdcO-4" vertex="1">
                    <mxGeometry width="30" height="30" as="geometry">
                        <mxRectangle width="30" height="30" as="alternateBounds"/>
                    </mxGeometry>
                </mxCell>
                <mxCell id="ygxjlyTsQvrE2GG9qdcO-6" value="START_DATETIME" style="shape=partialRectangle;connectable=0;fillColor=none;top=0;left=0;bottom=0;right=0;align=left;spacingLeft=6;overflow=hidden;" parent="ygxjlyTsQvrE2GG9qdcO-4" vertex="1">
                    <mxGeometry x="30" width="190" height="30" as="geometry">
                        <mxRectangle width="190" height="30" as="alternateBounds"/>
                    </mxGeometry>
                </mxCell>
                <mxCell id="ygxjlyTsQvrE2GG9qdcO-1" style="shape=tableRow;horizontal=0;startSize=0;swimlaneHead=0;swimlaneBody=0;fillColor=none;collapsible=0;dropTarget=0;points=[[0,0.5],[1,0.5]];portConstraint=eastwest;top=0;left=0;right=0;bottom=0;" parent="1b0Jubcj0DxyAnrPYgUr-17" vertex="1">
                    <mxGeometry y="270" width="220" height="30" as="geometry"/>
                </mxCell>
                <mxCell id="ygxjlyTsQvrE2GG9qdcO-2" style="shape=partialRectangle;connectable=0;fillColor=none;top=0;left=0;bottom=0;right=0;editable=1;overflow=hidden;" parent="ygxjlyTsQvrE2GG9qdcO-1" vertex="1">
                    <mxGeometry width="30" height="30" as="geometry">
                        <mxRectangle width="30" height="30" as="alternateBounds"/>
                    </mxGeometry>
                </mxCell>
                <mxCell id="ygxjlyTsQvrE2GG9qdcO-3" value="END_DATETIME" style="shape=partialRectangle;connectable=0;fillColor=none;top=0;left=0;bottom=0;right=0;align=left;spacingLeft=6;overflow=hidden;" parent="ygxjlyTsQvrE2GG9qdcO-1" vertex="1">
                    <mxGeometry x="30" width="190" height="30" as="geometry">
                        <mxRectangle width="190" height="30" as="alternateBounds"/>
                    </mxGeometry>
                </mxCell>
                <mxCell id="1b0Jubcj0DxyAnrPYgUr-33" style="edgeStyle=none;html=1;exitX=1;exitY=0.5;exitDx=0;exitDy=0;entryX=0;entryY=0.5;entryDx=0;entryDy=0;endArrow=ERzeroToMany;endFill=0;startSize=15;endSize=15;startArrow=ERone;startFill=0;" parent="1" source="1b0Jubcj0DxyAnrPYgUr-8" target="1b0Jubcj0DxyAnrPYgUr-24" edge="1">
                    <mxGeometry relative="1" as="geometry"/>
                </mxCell>
                <mxCell id="_9n8dDnJMUYlCpW2qCVW-1" value="TASKGROUP" style="shape=table;startSize=30;container=1;collapsible=1;childLayout=tableLayout;fixedRows=1;rowLines=0;fontStyle=1;align=center;resizeLast=1;" vertex="1" parent="1">
                    <mxGeometry x="850" y="115" width="180" height="90" as="geometry"/>
                </mxCell>
                <mxCell id="_9n8dDnJMUYlCpW2qCVW-2" value="" style="shape=tableRow;horizontal=0;startSize=0;swimlaneHead=0;swimlaneBody=0;fillColor=none;collapsible=0;dropTarget=0;points=[[0,0.5],[1,0.5]];portConstraint=eastwest;top=0;left=0;right=0;bottom=1;" vertex="1" parent="_9n8dDnJMUYlCpW2qCVW-1">
                    <mxGeometry y="30" width="180" height="30" as="geometry"/>
                </mxCell>
                <mxCell id="_9n8dDnJMUYlCpW2qCVW-3" value="PK" style="shape=partialRectangle;connectable=0;fillColor=none;top=0;left=0;bottom=0;right=0;fontStyle=1;overflow=hidden;" vertex="1" parent="_9n8dDnJMUYlCpW2qCVW-2">
                    <mxGeometry width="30" height="30" as="geometry">
                        <mxRectangle width="30" height="30" as="alternateBounds"/>
                    </mxGeometry>
                </mxCell>
                <mxCell id="_9n8dDnJMUYlCpW2qCVW-4" value="TASKGROUP_ID" style="shape=partialRectangle;connectable=0;fillColor=none;top=0;left=0;bottom=0;right=0;align=left;spacingLeft=6;fontStyle=5;overflow=hidden;" vertex="1" parent="_9n8dDnJMUYlCpW2qCVW-2">
                    <mxGeometry x="30" width="150" height="30" as="geometry">
                        <mxRectangle width="150" height="30" as="alternateBounds"/>
                    </mxGeometry>
                </mxCell>
                <mxCell id="_9n8dDnJMUYlCpW2qCVW-5" value="" style="shape=tableRow;horizontal=0;startSize=0;swimlaneHead=0;swimlaneBody=0;fillColor=none;collapsible=0;dropTarget=0;points=[[0,0.5],[1,0.5]];portConstraint=eastwest;top=0;left=0;right=0;bottom=0;" vertex="1" parent="_9n8dDnJMUYlCpW2qCVW-1">
                    <mxGeometry y="60" width="180" height="30" as="geometry"/>
                </mxCell>
                <mxCell id="_9n8dDnJMUYlCpW2qCVW-6" value="" style="shape=partialRectangle;connectable=0;fillColor=none;top=0;left=0;bottom=0;right=0;editable=1;overflow=hidden;" vertex="1" parent="_9n8dDnJMUYlCpW2qCVW-5">
                    <mxGeometry width="30" height="30" as="geometry">
                        <mxRectangle width="30" height="30" as="alternateBounds"/>
                    </mxGeometry>
                </mxCell>
                <mxCell id="_9n8dDnJMUYlCpW2qCVW-7" value="TASKGROUP_NAME" style="shape=partialRectangle;connectable=0;fillColor=none;top=0;left=0;bottom=0;right=0;align=left;spacingLeft=6;overflow=hidden;" vertex="1" parent="_9n8dDnJMUYlCpW2qCVW-5">
                    <mxGeometry x="30" width="150" height="30" as="geometry">
                        <mxRectangle width="150" height="30" as="alternateBounds"/>
                    </mxGeometry>
                </mxCell>
                <mxCell id="_9n8dDnJMUYlCpW2qCVW-14" style="edgeStyle=none;html=1;exitX=1;exitY=0.5;exitDx=0;exitDy=0;entryX=-0.004;entryY=-0.011;entryDx=0;entryDy=0;entryPerimeter=0;endArrow=ERone;endFill=0;startArrow=ERzeroToMany;startFill=0;endSize=15;startSize=15;" edge="1" parent="1" source="1b0Jubcj0DxyAnrPYgUr-24" target="_9n8dDnJMUYlCpW2qCVW-5">
                    <mxGeometry relative="1" as="geometry"/>
                </mxCell>
            </root>
        </mxGraphModel>
    </diagram>
    <diagram id="35JK25QLl3aUGye-xSjw" name="画面遷移図">
        <mxGraphModel dx="746" dy="419" grid="1" gridSize="10" guides="1" tooltips="1" connect="1" arrows="1" fold="1" page="1" pageScale="1" pageWidth="1169" pageHeight="827" math="0" shadow="0">
            <root>
                <mxCell id="0"/>
                <mxCell id="1" parent="0"/>
                <mxCell id="Sl63rN_DLXL7ivb6DqvB-8" value="" style="group" parent="1" vertex="1" connectable="0">
                    <mxGeometry x="130" y="280" width="210" height="150" as="geometry"/>
                </mxCell>
                <mxCell id="Sl63rN_DLXL7ivb6DqvB-1" value="" style="rounded=0;whiteSpace=wrap;html=1;container=0;" parent="Sl63rN_DLXL7ivb6DqvB-8" vertex="1">
                    <mxGeometry y="-1" width="210" height="150" as="geometry"/>
                </mxCell>
                <mxCell id="Sl63rN_DLXL7ivb6DqvB-2" value="{ユーザーID}さん、ログイン中" style="text;html=1;strokeColor=none;fillColor=none;align=center;verticalAlign=middle;whiteSpace=wrap;rounded=0;container=0;" parent="Sl63rN_DLXL7ivb6DqvB-8" vertex="1">
                    <mxGeometry x="13" y="30" width="180" height="30" as="geometry"/>
                </mxCell>
                <mxCell id="CWufHmVt0479f9pom2ZB-39" value="" style="edgeStyle=none;html=1;startArrow=none;startFill=0;endArrow=classic;endFill=1;startSize=6;endSize=6;" parent="Sl63rN_DLXL7ivb6DqvB-8" source="Sl63rN_DLXL7ivb6DqvB-5" target="Sl63rN_DLXL7ivb6DqvB-2" edge="1">
                    <mxGeometry relative="1" as="geometry"/>
                </mxCell>
                <mxCell id="Sl63rN_DLXL7ivb6DqvB-5" value="&lt;u&gt;タスク入力へ&lt;/u&gt;" style="text;html=1;strokeColor=none;fillColor=none;align=center;verticalAlign=middle;whiteSpace=wrap;rounded=0;container=0;" parent="Sl63rN_DLXL7ivb6DqvB-8" vertex="1">
                    <mxGeometry x="58" y="70" width="90" height="30" as="geometry"/>
                </mxCell>
                <mxCell id="Sl63rN_DLXL7ivb6DqvB-6" value="&lt;u&gt;業務開始&lt;/u&gt;" style="text;html=1;strokeColor=none;fillColor=none;align=center;verticalAlign=middle;whiteSpace=wrap;rounded=0;container=0;" parent="Sl63rN_DLXL7ivb6DqvB-8" vertex="1">
                    <mxGeometry x="73" y="100" width="60" height="30" as="geometry"/>
                </mxCell>
                <mxCell id="CWufHmVt0479f9pom2ZB-14" style="edgeStyle=none;html=1;exitX=0.5;exitY=1;exitDx=0;exitDy=0;entryX=0.5;entryY=0;entryDx=0;entryDy=0;startArrow=none;startFill=0;endArrow=classic;endFill=1;startSize=6;endSize=6;" parent="1" source="Sl63rN_DLXL7ivb6DqvB-1" target="Sl63rN_DLXL7ivb6DqvB-9" edge="1">
                    <mxGeometry relative="1" as="geometry"/>
                </mxCell>
                <mxCell id="CWufHmVt0479f9pom2ZB-15" value="「タスク入力へ」&lt;br&gt;をクリック" style="text;html=1;strokeColor=none;fillColor=none;align=center;verticalAlign=middle;whiteSpace=wrap;rounded=0;" parent="1" vertex="1">
                    <mxGeometry x="240" y="440" width="110" height="30" as="geometry"/>
                </mxCell>
                <mxCell id="CWufHmVt0479f9pom2ZB-16" style="edgeStyle=none;html=1;startArrow=none;startFill=0;endArrow=classic;endFill=1;startSize=6;endSize=6;entryX=-0.012;entryY=0.406;entryDx=0;entryDy=0;entryPerimeter=0;" parent="1" target="Sl63rN_DLXL7ivb6DqvB-24" edge="1">
                    <mxGeometry relative="1" as="geometry">
                        <mxPoint x="340" y="590" as="sourcePoint"/>
                        <mxPoint x="599.4000000000001" y="602.28" as="targetPoint"/>
                    </mxGeometry>
                </mxCell>
                <mxCell id="CWufHmVt0479f9pom2ZB-17" value="「業務開始」&lt;br&gt;をクリック" style="text;html=1;strokeColor=none;fillColor=none;align=center;verticalAlign=middle;whiteSpace=wrap;rounded=0;" parent="1" vertex="1">
                    <mxGeometry x="330" y="550" width="110" height="30" as="geometry"/>
                </mxCell>
                <mxCell id="CWufHmVt0479f9pom2ZB-18" style="edgeStyle=none;html=1;exitX=0;exitY=0.5;exitDx=0;exitDy=0;startArrow=none;startFill=0;endArrow=classic;endFill=1;startSize=6;endSize=6;" parent="1" source="Sl63rN_DLXL7ivb6DqvB-24" edge="1">
                    <mxGeometry relative="1" as="geometry">
                        <mxPoint x="340" y="620" as="targetPoint"/>
                    </mxGeometry>
                </mxCell>
                <mxCell id="CWufHmVt0479f9pom2ZB-19" value="「タスク追加」&lt;br&gt;をクリック" style="text;html=1;strokeColor=none;fillColor=none;align=center;verticalAlign=middle;whiteSpace=wrap;rounded=0;" parent="1" vertex="1">
                    <mxGeometry x="500" y="630" width="110" height="30" as="geometry"/>
                </mxCell>
                <mxCell id="CWufHmVt0479f9pom2ZB-23" value="" style="group" parent="1" vertex="1" connectable="0">
                    <mxGeometry x="600" y="460" width="200" height="320" as="geometry"/>
                </mxCell>
                <mxCell id="Sl63rN_DLXL7ivb6DqvB-24" value="" style="rounded=0;whiteSpace=wrap;html=1;container=0;" parent="CWufHmVt0479f9pom2ZB-23" vertex="1">
                    <mxGeometry width="200" height="320" as="geometry"/>
                </mxCell>
                <mxCell id="Sl63rN_DLXL7ivb6DqvB-25" value="業務遂行中・・・" style="text;html=1;strokeColor=none;fillColor=none;align=center;verticalAlign=middle;whiteSpace=wrap;rounded=0;container=0;" parent="CWufHmVt0479f9pom2ZB-23" vertex="1">
                    <mxGeometry x="20" y="20" width="100" height="20" as="geometry"/>
                </mxCell>
                <mxCell id="Sl63rN_DLXL7ivb6DqvB-26" value="・業務内容/予定時間/期限" style="text;html=1;strokeColor=none;fillColor=none;align=center;verticalAlign=middle;whiteSpace=wrap;rounded=0;container=0;" parent="CWufHmVt0479f9pom2ZB-23" vertex="1">
                    <mxGeometry x="10" y="50" width="180" height="20" as="geometry"/>
                </mxCell>
                <mxCell id="Sl63rN_DLXL7ivb6DqvB-28" value="開始" style="rounded=0;whiteSpace=wrap;html=1;container=0;" parent="CWufHmVt0479f9pom2ZB-23" vertex="1">
                    <mxGeometry x="93" y="80" width="40" height="20" as="geometry"/>
                </mxCell>
                <mxCell id="Sl63rN_DLXL7ivb6DqvB-29" value="終了" style="rounded=0;whiteSpace=wrap;html=1;container=0;" parent="CWufHmVt0479f9pom2ZB-23" vertex="1">
                    <mxGeometry x="144" y="80" width="40" height="20" as="geometry"/>
                </mxCell>
                <mxCell id="Sl63rN_DLXL7ivb6DqvB-31" value="・業務内容/予定時間/期限" style="text;html=1;strokeColor=none;fillColor=none;align=center;verticalAlign=middle;whiteSpace=wrap;rounded=0;container=0;" parent="CWufHmVt0479f9pom2ZB-23" vertex="1">
                    <mxGeometry x="10" y="109" width="180" height="20" as="geometry"/>
                </mxCell>
                <mxCell id="Sl63rN_DLXL7ivb6DqvB-32" value="開始" style="rounded=0;whiteSpace=wrap;html=1;container=0;" parent="CWufHmVt0479f9pom2ZB-23" vertex="1">
                    <mxGeometry x="93" y="130" width="40" height="20" as="geometry"/>
                </mxCell>
                <mxCell id="Sl63rN_DLXL7ivb6DqvB-33" value="終了" style="rounded=0;whiteSpace=wrap;html=1;container=0;" parent="CWufHmVt0479f9pom2ZB-23" vertex="1">
                    <mxGeometry x="144" y="130" width="40" height="20" as="geometry"/>
                </mxCell>
                <mxCell id="Sl63rN_DLXL7ivb6DqvB-34" value="…" style="text;html=1;strokeColor=none;fillColor=none;align=center;verticalAlign=middle;whiteSpace=wrap;rounded=0;rotation=90;container=0;" parent="CWufHmVt0479f9pom2ZB-23" vertex="1">
                    <mxGeometry x="89" y="218" width="30" height="24" as="geometry"/>
                </mxCell>
                <mxCell id="Sl63rN_DLXL7ivb6DqvB-35" value="開始時刻" style="text;html=1;strokeColor=none;fillColor=none;align=center;verticalAlign=middle;whiteSpace=wrap;rounded=0;container=0;" parent="CWufHmVt0479f9pom2ZB-23" vertex="1">
                    <mxGeometry x="20" y="150" width="50" height="20" as="geometry"/>
                </mxCell>
                <mxCell id="Sl63rN_DLXL7ivb6DqvB-36" value="終了時刻" style="text;html=1;strokeColor=none;fillColor=none;align=center;verticalAlign=middle;whiteSpace=wrap;rounded=0;container=0;" parent="CWufHmVt0479f9pom2ZB-23" vertex="1">
                    <mxGeometry x="70" y="150" width="60" height="20" as="geometry"/>
                </mxCell>
                <mxCell id="Sl63rN_DLXL7ivb6DqvB-37" value="かかった時間　〇分" style="text;html=1;strokeColor=none;fillColor=none;align=center;verticalAlign=middle;whiteSpace=wrap;rounded=0;container=0;" parent="CWufHmVt0479f9pom2ZB-23" vertex="1">
                    <mxGeometry x="80" y="170" width="110" height="20" as="geometry"/>
                </mxCell>
                <mxCell id="Sl63rN_DLXL7ivb6DqvB-39" value="予定時刻との差　〇分" style="text;html=1;strokeColor=none;fillColor=none;align=center;verticalAlign=middle;whiteSpace=wrap;rounded=0;container=0;" parent="CWufHmVt0479f9pom2ZB-23" vertex="1">
                    <mxGeometry x="64" y="190" width="130" height="20" as="geometry"/>
                </mxCell>
                <mxCell id="Sl63rN_DLXL7ivb6DqvB-40" value="業務終了" style="rounded=0;whiteSpace=wrap;html=1;container=0;" parent="CWufHmVt0479f9pom2ZB-23" vertex="1">
                    <mxGeometry x="70" y="280" width="60" height="20" as="geometry"/>
                </mxCell>
                <mxCell id="CWufHmVt0479f9pom2ZB-21" value="タスク追加" style="rounded=0;whiteSpace=wrap;html=1;" parent="CWufHmVt0479f9pom2ZB-23" vertex="1">
                    <mxGeometry x="65" y="250" width="70" height="20" as="geometry"/>
                </mxCell>
                <mxCell id="CWufHmVt0479f9pom2ZB-24" style="edgeStyle=none;html=1;exitX=0.5;exitY=0;exitDx=0;exitDy=0;startArrow=none;startFill=0;endArrow=classic;endFill=1;startSize=6;endSize=6;" parent="1" source="Sl63rN_DLXL7ivb6DqvB-24" target="Sl63rN_DLXL7ivb6DqvB-41" edge="1">
                    <mxGeometry relative="1" as="geometry"/>
                </mxCell>
                <mxCell id="CWufHmVt0479f9pom2ZB-26" value="「業務終了」&lt;br&gt;をクリック" style="text;html=1;strokeColor=none;fillColor=none;align=center;verticalAlign=middle;whiteSpace=wrap;rounded=0;" parent="1" vertex="1">
                    <mxGeometry x="700" y="394" width="90" height="40" as="geometry"/>
                </mxCell>
                <mxCell id="CWufHmVt0479f9pom2ZB-27" style="edgeStyle=none;html=1;exitX=0;exitY=0.5;exitDx=0;exitDy=0;entryX=1.009;entryY=0.402;entryDx=0;entryDy=0;entryPerimeter=0;startArrow=none;startFill=0;endArrow=classic;endFill=1;startSize=6;endSize=6;" parent="1" source="Sl63rN_DLXL7ivb6DqvB-41" target="CWufHmVt0479f9pom2ZB-29" edge="1">
                    <mxGeometry relative="1" as="geometry">
                        <Array as="points">
                            <mxPoint x="490" y="290"/>
                            <mxPoint x="490" y="100"/>
                        </Array>
                    </mxGeometry>
                </mxCell>
                <mxCell id="CWufHmVt0479f9pom2ZB-38" value="" style="group" parent="1" vertex="1" connectable="0">
                    <mxGeometry x="130" y="30" width="210" height="170" as="geometry"/>
                </mxCell>
                <mxCell id="CWufHmVt0479f9pom2ZB-29" value="" style="rounded=0;whiteSpace=wrap;html=1;" parent="CWufHmVt0479f9pom2ZB-38" vertex="1">
                    <mxGeometry width="210" height="170" as="geometry"/>
                </mxCell>
                <mxCell id="CWufHmVt0479f9pom2ZB-30" value="WorkOptimizerへようこそ" style="text;html=1;strokeColor=none;fillColor=none;align=center;verticalAlign=middle;whiteSpace=wrap;rounded=0;" parent="CWufHmVt0479f9pom2ZB-38" vertex="1">
                    <mxGeometry x="20" y="20" width="170" height="20" as="geometry"/>
                </mxCell>
                <mxCell id="CWufHmVt0479f9pom2ZB-32" value="ログインID" style="rounded=0;whiteSpace=wrap;html=1;" parent="CWufHmVt0479f9pom2ZB-38" vertex="1">
                    <mxGeometry x="60" y="50" width="90" height="20" as="geometry"/>
                </mxCell>
                <mxCell id="CWufHmVt0479f9pom2ZB-35" value="PASS" style="rounded=0;whiteSpace=wrap;html=1;" parent="CWufHmVt0479f9pom2ZB-38" vertex="1">
                    <mxGeometry x="60" y="80" width="90" height="20" as="geometry"/>
                </mxCell>
                <mxCell id="CWufHmVt0479f9pom2ZB-36" value="ログイン" style="rounded=0;whiteSpace=wrap;html=1;" parent="CWufHmVt0479f9pom2ZB-38" vertex="1">
                    <mxGeometry x="75" y="110" width="60" height="20" as="geometry"/>
                </mxCell>
                <mxCell id="CWufHmVt0479f9pom2ZB-37" value="会員登録はこちら" style="rounded=0;whiteSpace=wrap;html=1;" parent="CWufHmVt0479f9pom2ZB-38" vertex="1">
                    <mxGeometry x="55" y="140" width="100" height="20" as="geometry"/>
                </mxCell>
                <mxCell id="CWufHmVt0479f9pom2ZB-41" style="edgeStyle=none;html=1;exitX=0.5;exitY=1;exitDx=0;exitDy=0;entryX=0.5;entryY=0;entryDx=0;entryDy=0;startArrow=none;startFill=0;endArrow=classic;endFill=1;startSize=6;endSize=6;" parent="1" source="CWufHmVt0479f9pom2ZB-29" target="Sl63rN_DLXL7ivb6DqvB-1" edge="1">
                    <mxGeometry relative="1" as="geometry"/>
                </mxCell>
                <mxCell id="CWufHmVt0479f9pom2ZB-43" value="「ログアウト」&lt;br&gt;をクリック" style="text;html=1;strokeColor=none;fillColor=none;align=center;verticalAlign=middle;whiteSpace=wrap;rounded=0;" parent="1" vertex="1">
                    <mxGeometry x="490" y="250" width="110" height="30" as="geometry"/>
                </mxCell>
                <mxCell id="CWufHmVt0479f9pom2ZB-44" value="情報を入力して&lt;br&gt;「ログイン」&lt;br&gt;をクリック" style="text;html=1;strokeColor=none;fillColor=none;align=center;verticalAlign=middle;whiteSpace=wrap;rounded=0;" parent="1" vertex="1">
                    <mxGeometry x="240" y="210" width="100" height="50" as="geometry"/>
                </mxCell>
                <mxCell id="lZrA9g2nLIO9bXkuRM7S-1" value="" style="group" parent="1" vertex="1" connectable="0">
                    <mxGeometry x="600" y="190" width="200" height="200" as="geometry"/>
                </mxCell>
                <mxCell id="Sl63rN_DLXL7ivb6DqvB-41" value="" style="rounded=0;whiteSpace=wrap;html=1;" parent="lZrA9g2nLIO9bXkuRM7S-1" vertex="1">
                    <mxGeometry width="200" height="200" as="geometry"/>
                </mxCell>
                <mxCell id="CWufHmVt0479f9pom2ZB-1" value="業務完了　お疲れさまでした！" style="text;html=1;strokeColor=none;fillColor=none;align=center;verticalAlign=middle;whiteSpace=wrap;rounded=0;" parent="lZrA9g2nLIO9bXkuRM7S-1" vertex="1">
                    <mxGeometry x="15" y="8" width="170" height="26" as="geometry"/>
                </mxCell>
                <mxCell id="CWufHmVt0479f9pom2ZB-3" value="業務内容①" style="rounded=0;whiteSpace=wrap;html=1;" parent="lZrA9g2nLIO9bXkuRM7S-1" vertex="1">
                    <mxGeometry x="15" y="61" width="70" height="20" as="geometry"/>
                </mxCell>
                <mxCell id="CWufHmVt0479f9pom2ZB-4" value="合計　〇分" style="text;html=1;strokeColor=none;fillColor=none;align=center;verticalAlign=middle;whiteSpace=wrap;rounded=0;" parent="lZrA9g2nLIO9bXkuRM7S-1" vertex="1">
                    <mxGeometry x="115" y="61" width="70" height="20" as="geometry"/>
                </mxCell>
                <mxCell id="CWufHmVt0479f9pom2ZB-5" value="今日の成果" style="text;html=1;strokeColor=none;fillColor=none;align=center;verticalAlign=middle;whiteSpace=wrap;rounded=0;" parent="lZrA9g2nLIO9bXkuRM7S-1" vertex="1">
                    <mxGeometry x="9" y="37" width="80" height="20" as="geometry"/>
                </mxCell>
                <mxCell id="CWufHmVt0479f9pom2ZB-6" value="業務内容②" style="rounded=0;whiteSpace=wrap;html=1;" parent="lZrA9g2nLIO9bXkuRM7S-1" vertex="1">
                    <mxGeometry x="15" y="88" width="70" height="20" as="geometry"/>
                </mxCell>
                <mxCell id="CWufHmVt0479f9pom2ZB-7" value="合計　〇分" style="text;html=1;strokeColor=none;fillColor=none;align=center;verticalAlign=middle;whiteSpace=wrap;rounded=0;" parent="lZrA9g2nLIO9bXkuRM7S-1" vertex="1">
                    <mxGeometry x="115" y="88" width="70" height="20" as="geometry"/>
                </mxCell>
                <mxCell id="CWufHmVt0479f9pom2ZB-8" value="…" style="text;html=1;strokeColor=none;fillColor=none;align=center;verticalAlign=middle;whiteSpace=wrap;rounded=0;rotation=90;container=0;" parent="lZrA9g2nLIO9bXkuRM7S-1" vertex="1">
                    <mxGeometry x="85" y="114" width="30" height="24" as="geometry"/>
                </mxCell>
                <mxCell id="CWufHmVt0479f9pom2ZB-9" value="１日の合計　〇分" style="text;html=1;strokeColor=none;fillColor=none;align=center;verticalAlign=middle;whiteSpace=wrap;rounded=0;" parent="lZrA9g2nLIO9bXkuRM7S-1" vertex="1">
                    <mxGeometry x="85" y="141" width="100" height="20" as="geometry"/>
                </mxCell>
                <mxCell id="CWufHmVt0479f9pom2ZB-10" value="ログアウト" style="rounded=0;whiteSpace=wrap;html=1;" parent="lZrA9g2nLIO9bXkuRM7S-1" vertex="1">
                    <mxGeometry x="60" y="171" width="80" height="20" as="geometry"/>
                </mxCell>
                <mxCell id="ziFE2BPmZ3l51SdXjIn2-15" value="" style="group" parent="1" vertex="1" connectable="0">
                    <mxGeometry x="130" y="501" width="210" height="270" as="geometry"/>
                </mxCell>
                <mxCell id="Sl63rN_DLXL7ivb6DqvB-9" value="" style="rounded=0;whiteSpace=wrap;html=1;container=0;" parent="ziFE2BPmZ3l51SdXjIn2-15" vertex="1">
                    <mxGeometry width="210" height="270" as="geometry"/>
                </mxCell>
                <mxCell id="Sl63rN_DLXL7ivb6DqvB-10" value="タスク入力画面" style="text;html=1;strokeColor=none;fillColor=none;align=center;verticalAlign=middle;whiteSpace=wrap;rounded=0;container=0;" parent="ziFE2BPmZ3l51SdXjIn2-15" vertex="1">
                    <mxGeometry x="10" y="10" width="130" height="30" as="geometry"/>
                </mxCell>
                <mxCell id="Sl63rN_DLXL7ivb6DqvB-12" value="業務内容" style="rounded=0;whiteSpace=wrap;html=1;container=0;" parent="ziFE2BPmZ3l51SdXjIn2-15" vertex="1">
                    <mxGeometry x="10" y="50" width="50" height="20" as="geometry"/>
                </mxCell>
                <mxCell id="Sl63rN_DLXL7ivb6DqvB-13" value="詳しい内容" style="rounded=0;whiteSpace=wrap;html=1;container=0;" parent="ziFE2BPmZ3l51SdXjIn2-15" vertex="1">
                    <mxGeometry x="70" y="50" width="120" height="20" as="geometry"/>
                </mxCell>
                <mxCell id="Sl63rN_DLXL7ivb6DqvB-14" value="予定時間" style="rounded=0;whiteSpace=wrap;html=1;container=0;" parent="ziFE2BPmZ3l51SdXjIn2-15" vertex="1">
                    <mxGeometry x="10" y="80" width="60" height="20" as="geometry"/>
                </mxCell>
                <mxCell id="Sl63rN_DLXL7ivb6DqvB-15" value="登録" style="rounded=0;whiteSpace=wrap;html=1;container=0;" parent="ziFE2BPmZ3l51SdXjIn2-15" vertex="1">
                    <mxGeometry x="140" y="80" width="50" height="20" as="geometry"/>
                </mxCell>
                <mxCell id="Sl63rN_DLXL7ivb6DqvB-16" value="登録一覧" style="text;html=1;strokeColor=none;fillColor=none;align=center;verticalAlign=middle;whiteSpace=wrap;rounded=0;container=0;" parent="ziFE2BPmZ3l51SdXjIn2-15" vertex="1">
                    <mxGeometry x="24" y="110" width="60" height="30" as="geometry"/>
                </mxCell>
                <mxCell id="Sl63rN_DLXL7ivb6DqvB-17" value="・業務内容/予定時間/期限" style="text;html=1;strokeColor=none;fillColor=none;align=center;verticalAlign=middle;whiteSpace=wrap;rounded=0;container=0;" parent="ziFE2BPmZ3l51SdXjIn2-15" vertex="1">
                    <mxGeometry x="15" y="140" width="180" height="20" as="geometry"/>
                </mxCell>
                <mxCell id="Sl63rN_DLXL7ivb6DqvB-18" value="・業務内容/予定時間/期限" style="text;html=1;strokeColor=none;fillColor=none;align=center;verticalAlign=middle;whiteSpace=wrap;rounded=0;fontStyle=0;container=0;" parent="ziFE2BPmZ3l51SdXjIn2-15" vertex="1">
                    <mxGeometry x="15" y="160" width="180" height="20" as="geometry"/>
                </mxCell>
                <mxCell id="Sl63rN_DLXL7ivb6DqvB-19" value="・業務内容/予定時間/期限" style="text;html=1;strokeColor=none;fillColor=none;align=center;verticalAlign=middle;whiteSpace=wrap;rounded=0;fontStyle=0;container=0;" parent="ziFE2BPmZ3l51SdXjIn2-15" vertex="1">
                    <mxGeometry x="15" y="184" width="180" height="20" as="geometry"/>
                </mxCell>
                <mxCell id="Sl63rN_DLXL7ivb6DqvB-20" value="…" style="text;html=1;strokeColor=none;fillColor=none;align=center;verticalAlign=middle;whiteSpace=wrap;rounded=0;rotation=90;container=0;" parent="ziFE2BPmZ3l51SdXjIn2-15" vertex="1">
                    <mxGeometry x="90" y="204" width="30" height="24" as="geometry"/>
                </mxCell>
                <mxCell id="Sl63rN_DLXL7ivb6DqvB-22" value="業務開始" style="rounded=0;whiteSpace=wrap;html=1;container=0;" parent="ziFE2BPmZ3l51SdXjIn2-15" vertex="1">
                    <mxGeometry x="70" y="240" width="70" height="20" as="geometry"/>
                </mxCell>
                <mxCell id="ziFE2BPmZ3l51SdXjIn2-14" value="期限" style="rounded=0;whiteSpace=wrap;html=1;container=0;" parent="ziFE2BPmZ3l51SdXjIn2-15" vertex="1">
                    <mxGeometry x="80" y="80" width="40" height="20" as="geometry"/>
                </mxCell>
            </root>
        </mxGraphModel>
    </diagram>
    <diagram id="y-vWYijxUe9LBoeBsQ7s" name="拡張した画面遷移図">
        <mxGraphModel dx="746" dy="419" grid="1" gridSize="10" guides="1" tooltips="1" connect="1" arrows="1" fold="1" page="1" pageScale="1" pageWidth="1169" pageHeight="827" math="0" shadow="0">
            <root>
                <mxCell id="0"/>
                <mxCell id="1" parent="0"/>
                <mxCell id="ChO4oFbsvd4cig1xQNgZ-31" style="edgeStyle=none;html=1;exitX=0.5;exitY=1;exitDx=0;exitDy=0;entryX=0.5;entryY=0;entryDx=0;entryDy=0;startArrow=none;startFill=0;endArrow=classic;endFill=1;startSize=6;endSize=6;" parent="1" source="Do_X9f2P6NO6NZYZC-At-9" target="ChO4oFbsvd4cig1xQNgZ-9" edge="1">
                    <mxGeometry relative="1" as="geometry"/>
                </mxCell>
                <mxCell id="ChO4oFbsvd4cig1xQNgZ-32" value="「タスク入力へ」&lt;br&gt;をクリック" style="text;html=1;strokeColor=none;fillColor=none;align=center;verticalAlign=middle;whiteSpace=wrap;rounded=0;" parent="1" vertex="1">
                    <mxGeometry x="365" y="423" width="110" height="30" as="geometry"/>
                </mxCell>
                <mxCell id="ChO4oFbsvd4cig1xQNgZ-34" value="「業務開始」&lt;br&gt;をクリック" style="text;html=1;strokeColor=none;fillColor=none;align=center;verticalAlign=middle;whiteSpace=wrap;rounded=0;" parent="1" vertex="1">
                    <mxGeometry x="430" y="742" width="83" height="30" as="geometry"/>
                </mxCell>
                <mxCell id="ChO4oFbsvd4cig1xQNgZ-36" value="「タスク追加」&lt;br&gt;をクリック" style="text;html=1;strokeColor=none;fillColor=none;align=center;verticalAlign=middle;whiteSpace=wrap;rounded=0;" parent="1" vertex="1">
                    <mxGeometry x="600" y="600" width="90" height="30" as="geometry"/>
                </mxCell>
                <mxCell id="ChO4oFbsvd4cig1xQNgZ-53" style="edgeStyle=none;html=1;exitX=0.5;exitY=0;exitDx=0;exitDy=0;startArrow=none;startFill=0;endArrow=classic;endFill=1;startSize=6;endSize=6;" parent="1" source="ChO4oFbsvd4cig1xQNgZ-38" target="ChO4oFbsvd4cig1xQNgZ-1" edge="1">
                    <mxGeometry relative="1" as="geometry"/>
                </mxCell>
                <mxCell id="ChO4oFbsvd4cig1xQNgZ-54" value="「業務終了」&lt;br&gt;をクリック" style="text;html=1;strokeColor=none;fillColor=none;align=center;verticalAlign=middle;whiteSpace=wrap;rounded=0;" parent="1" vertex="1">
                    <mxGeometry x="820" y="540" width="90" height="40" as="geometry"/>
                </mxCell>
                <mxCell id="ChO4oFbsvd4cig1xQNgZ-63" style="edgeStyle=none;html=1;exitX=0.5;exitY=1;exitDx=0;exitDy=0;entryX=0.5;entryY=0;entryDx=0;entryDy=0;startArrow=none;startFill=0;endArrow=classic;endFill=1;startSize=6;endSize=6;" parent="1" source="ChO4oFbsvd4cig1xQNgZ-57" target="ChO4oFbsvd4cig1xQNgZ-3" edge="1">
                    <mxGeometry relative="1" as="geometry"/>
                </mxCell>
                <mxCell id="ChO4oFbsvd4cig1xQNgZ-64" value="「ログアウト」&lt;br&gt;をクリック" style="text;html=1;strokeColor=none;fillColor=none;align=center;verticalAlign=middle;whiteSpace=wrap;rounded=0;" parent="1" vertex="1">
                    <mxGeometry x="590" y="345" width="110" height="30" as="geometry"/>
                </mxCell>
                <mxCell id="ChO4oFbsvd4cig1xQNgZ-65" value="情報を入力して&lt;br&gt;「ログイン」&lt;br&gt;をクリック" style="text;html=1;strokeColor=none;fillColor=none;align=center;verticalAlign=middle;whiteSpace=wrap;rounded=0;" parent="1" vertex="1">
                    <mxGeometry x="375" y="232" width="100" height="50" as="geometry"/>
                </mxCell>
                <mxCell id="ChO4oFbsvd4cig1xQNgZ-66" value="" style="group" parent="1" vertex="1" connectable="0">
                    <mxGeometry x="220" y="102" width="210" height="130" as="geometry"/>
                </mxCell>
                <mxCell id="ChO4oFbsvd4cig1xQNgZ-57" value="" style="rounded=0;whiteSpace=wrap;html=1;" parent="ChO4oFbsvd4cig1xQNgZ-66" vertex="1">
                    <mxGeometry width="210" height="130" as="geometry"/>
                </mxCell>
                <mxCell id="ChO4oFbsvd4cig1xQNgZ-58" value="WorkOptimizerへようこそ" style="text;html=1;strokeColor=none;fillColor=none;align=center;verticalAlign=middle;whiteSpace=wrap;rounded=0;" parent="ChO4oFbsvd4cig1xQNgZ-66" vertex="1">
                    <mxGeometry x="20" width="170" height="20" as="geometry"/>
                </mxCell>
                <mxCell id="ChO4oFbsvd4cig1xQNgZ-59" value="ログインID" style="rounded=0;whiteSpace=wrap;html=1;" parent="ChO4oFbsvd4cig1xQNgZ-66" vertex="1">
                    <mxGeometry x="60" y="20" width="90" height="20" as="geometry"/>
                </mxCell>
                <mxCell id="ChO4oFbsvd4cig1xQNgZ-60" value="PASS" style="rounded=0;whiteSpace=wrap;html=1;" parent="ChO4oFbsvd4cig1xQNgZ-66" vertex="1">
                    <mxGeometry x="60" y="46" width="90" height="20" as="geometry"/>
                </mxCell>
                <mxCell id="ChO4oFbsvd4cig1xQNgZ-61" value="ログイン" style="rounded=0;whiteSpace=wrap;html=1;" parent="ChO4oFbsvd4cig1xQNgZ-66" vertex="1">
                    <mxGeometry x="75" y="71" width="60" height="20" as="geometry"/>
                </mxCell>
                <mxCell id="ChO4oFbsvd4cig1xQNgZ-62" value="会員登録はこちら" style="rounded=0;whiteSpace=wrap;html=1;" parent="ChO4oFbsvd4cig1xQNgZ-66" vertex="1">
                    <mxGeometry x="55" y="98" width="100" height="20" as="geometry"/>
                </mxCell>
                <mxCell id="ChO4oFbsvd4cig1xQNgZ-3" value="" style="rounded=0;whiteSpace=wrap;html=1;container=0;" parent="1" vertex="1">
                    <mxGeometry x="220" y="351" width="210" height="71" as="geometry"/>
                </mxCell>
                <mxCell id="ChO4oFbsvd4cig1xQNgZ-4" value="{ユーザーID}さん、ログイン中" style="text;html=1;strokeColor=none;fillColor=none;align=center;verticalAlign=middle;whiteSpace=wrap;rounded=0;container=0;" parent="1" vertex="1">
                    <mxGeometry x="236" y="356" width="177" height="21" as="geometry"/>
                </mxCell>
                <mxCell id="ChO4oFbsvd4cig1xQNgZ-6" value="&lt;u&gt;タスク入力へ&lt;/u&gt;" style="text;html=1;strokeColor=none;fillColor=none;align=center;verticalAlign=middle;whiteSpace=wrap;rounded=0;container=0;" parent="1" vertex="1">
                    <mxGeometry x="280" y="375" width="90" height="21" as="geometry"/>
                </mxCell>
                <mxCell id="ChO4oFbsvd4cig1xQNgZ-7" value="&lt;u&gt;業務開始&lt;/u&gt;" style="text;html=1;strokeColor=none;fillColor=none;align=center;verticalAlign=middle;whiteSpace=wrap;rounded=0;container=0;" parent="1" vertex="1">
                    <mxGeometry x="293" y="394" width="57" height="20" as="geometry"/>
                </mxCell>
                <mxCell id="ChO4oFbsvd4cig1xQNgZ-79" value="" style="group" parent="1" vertex="1" connectable="0">
                    <mxGeometry x="690" y="582" width="200" height="210" as="geometry"/>
                </mxCell>
                <mxCell id="ChO4oFbsvd4cig1xQNgZ-38" value="" style="rounded=0;whiteSpace=wrap;html=1;container=0;" parent="ChO4oFbsvd4cig1xQNgZ-79" vertex="1">
                    <mxGeometry width="200" height="210" as="geometry"/>
                </mxCell>
                <mxCell id="ChO4oFbsvd4cig1xQNgZ-39" value="業務遂行中・・・" style="text;html=1;strokeColor=none;fillColor=none;align=center;verticalAlign=middle;whiteSpace=wrap;rounded=0;container=0;" parent="ChO4oFbsvd4cig1xQNgZ-79" vertex="1">
                    <mxGeometry x="10" y="4" width="100" height="20" as="geometry"/>
                </mxCell>
                <mxCell id="ChO4oFbsvd4cig1xQNgZ-40" value="・業務内容/予定時間/期限" style="text;html=1;strokeColor=none;fillColor=none;align=center;verticalAlign=middle;whiteSpace=wrap;rounded=0;container=0;" parent="ChO4oFbsvd4cig1xQNgZ-79" vertex="1">
                    <mxGeometry x="8" y="18" width="180" height="20" as="geometry"/>
                </mxCell>
                <mxCell id="ChO4oFbsvd4cig1xQNgZ-41" value="開始" style="rounded=0;whiteSpace=wrap;html=1;container=0;" parent="ChO4oFbsvd4cig1xQNgZ-79" vertex="1">
                    <mxGeometry x="93" y="37" width="40" height="20" as="geometry"/>
                </mxCell>
                <mxCell id="ChO4oFbsvd4cig1xQNgZ-42" value="終了" style="rounded=0;whiteSpace=wrap;html=1;container=0;" parent="ChO4oFbsvd4cig1xQNgZ-79" vertex="1">
                    <mxGeometry x="144" y="37" width="40" height="20" as="geometry"/>
                </mxCell>
                <mxCell id="ChO4oFbsvd4cig1xQNgZ-43" value="・業務内容/予定時間/期限" style="text;html=1;strokeColor=none;fillColor=none;align=center;verticalAlign=middle;whiteSpace=wrap;rounded=0;container=0;" parent="ChO4oFbsvd4cig1xQNgZ-79" vertex="1">
                    <mxGeometry x="10" y="57" width="180" height="20" as="geometry"/>
                </mxCell>
                <mxCell id="ChO4oFbsvd4cig1xQNgZ-44" value="開始" style="rounded=0;whiteSpace=wrap;html=1;container=0;" parent="ChO4oFbsvd4cig1xQNgZ-79" vertex="1">
                    <mxGeometry x="93" y="76" width="40" height="20" as="geometry"/>
                </mxCell>
                <mxCell id="ChO4oFbsvd4cig1xQNgZ-45" value="終了" style="rounded=0;whiteSpace=wrap;html=1;container=0;" parent="ChO4oFbsvd4cig1xQNgZ-79" vertex="1">
                    <mxGeometry x="144" y="76" width="40" height="20" as="geometry"/>
                </mxCell>
                <mxCell id="ChO4oFbsvd4cig1xQNgZ-46" value="…" style="text;html=1;strokeColor=none;fillColor=none;align=center;verticalAlign=middle;whiteSpace=wrap;rounded=0;rotation=90;container=0;" parent="ChO4oFbsvd4cig1xQNgZ-79" vertex="1">
                    <mxGeometry x="89" y="139" width="30" height="24" as="geometry"/>
                </mxCell>
                <mxCell id="ChO4oFbsvd4cig1xQNgZ-47" value="開始時刻" style="text;html=1;strokeColor=none;fillColor=none;align=center;verticalAlign=middle;whiteSpace=wrap;rounded=0;container=0;" parent="ChO4oFbsvd4cig1xQNgZ-79" vertex="1">
                    <mxGeometry x="20" y="97" width="50" height="20" as="geometry"/>
                </mxCell>
                <mxCell id="ChO4oFbsvd4cig1xQNgZ-48" value="終了時刻" style="text;html=1;strokeColor=none;fillColor=none;align=center;verticalAlign=middle;whiteSpace=wrap;rounded=0;container=0;" parent="ChO4oFbsvd4cig1xQNgZ-79" vertex="1">
                    <mxGeometry x="70" y="97" width="60" height="20" as="geometry"/>
                </mxCell>
                <mxCell id="ChO4oFbsvd4cig1xQNgZ-49" value="かかった時間　〇分" style="text;html=1;strokeColor=none;fillColor=none;align=center;verticalAlign=middle;whiteSpace=wrap;rounded=0;container=0;" parent="ChO4oFbsvd4cig1xQNgZ-79" vertex="1">
                    <mxGeometry x="80" y="111" width="110" height="20" as="geometry"/>
                </mxCell>
                <mxCell id="ChO4oFbsvd4cig1xQNgZ-50" value="予定時刻との差　〇分" style="text;html=1;strokeColor=none;fillColor=none;align=center;verticalAlign=middle;whiteSpace=wrap;rounded=0;container=0;" parent="ChO4oFbsvd4cig1xQNgZ-79" vertex="1">
                    <mxGeometry x="64" y="125" width="130" height="20" as="geometry"/>
                </mxCell>
                <mxCell id="ChO4oFbsvd4cig1xQNgZ-51" value="業務終了" style="rounded=0;whiteSpace=wrap;html=1;container=0;" parent="ChO4oFbsvd4cig1xQNgZ-79" vertex="1">
                    <mxGeometry x="70" y="182" width="60" height="20" as="geometry"/>
                </mxCell>
                <mxCell id="ChO4oFbsvd4cig1xQNgZ-52" value="タスク追加" style="rounded=0;whiteSpace=wrap;html=1;" parent="ChO4oFbsvd4cig1xQNgZ-79" vertex="1">
                    <mxGeometry x="65" y="158" width="70" height="20" as="geometry"/>
                </mxCell>
                <mxCell id="ChO4oFbsvd4cig1xQNgZ-68" value="業務遂行中・・・" style="text;html=1;strokeColor=none;fillColor=none;align=center;verticalAlign=middle;whiteSpace=wrap;rounded=0;container=0;" parent="ChO4oFbsvd4cig1xQNgZ-79" vertex="1">
                    <mxGeometry x="10" y="4" width="100" height="20" as="geometry"/>
                </mxCell>
                <mxCell id="ChO4oFbsvd4cig1xQNgZ-70" value="開始" style="rounded=0;whiteSpace=wrap;html=1;container=0;" parent="ChO4oFbsvd4cig1xQNgZ-79" vertex="1">
                    <mxGeometry x="93" y="37" width="40" height="20" as="geometry"/>
                </mxCell>
                <mxCell id="Do_X9f2P6NO6NZYZC-At-1" value="" style="group" parent="1" vertex="1" connectable="0">
                    <mxGeometry x="690" y="259" width="200" height="140" as="geometry"/>
                </mxCell>
                <mxCell id="ChO4oFbsvd4cig1xQNgZ-1" value="" style="rounded=0;whiteSpace=wrap;html=1;" parent="Do_X9f2P6NO6NZYZC-At-1" vertex="1">
                    <mxGeometry width="200" height="140" as="geometry"/>
                </mxCell>
                <mxCell id="ChO4oFbsvd4cig1xQNgZ-22" value="業務完了　お疲れさまでした！" style="text;html=1;strokeColor=none;fillColor=none;align=center;verticalAlign=middle;whiteSpace=wrap;rounded=0;" parent="Do_X9f2P6NO6NZYZC-At-1" vertex="1">
                    <mxGeometry x="15" y="6" width="175" height="12" as="geometry"/>
                </mxCell>
                <mxCell id="ChO4oFbsvd4cig1xQNgZ-23" value="業務内容①" style="rounded=0;whiteSpace=wrap;html=1;" parent="Do_X9f2P6NO6NZYZC-At-1" vertex="1">
                    <mxGeometry x="15" y="31" width="70" height="20" as="geometry"/>
                </mxCell>
                <mxCell id="ChO4oFbsvd4cig1xQNgZ-24" value="合計　〇分" style="text;html=1;strokeColor=none;fillColor=none;align=center;verticalAlign=middle;whiteSpace=wrap;rounded=0;" parent="Do_X9f2P6NO6NZYZC-At-1" vertex="1">
                    <mxGeometry x="115" y="32" width="70" height="20" as="geometry"/>
                </mxCell>
                <mxCell id="ChO4oFbsvd4cig1xQNgZ-25" value="今日の成果" style="text;html=1;strokeColor=none;fillColor=none;align=center;verticalAlign=middle;whiteSpace=wrap;rounded=0;" parent="Do_X9f2P6NO6NZYZC-At-1" vertex="1">
                    <mxGeometry x="9" y="17" width="81" height="13" as="geometry"/>
                </mxCell>
                <mxCell id="ChO4oFbsvd4cig1xQNgZ-26" value="業務内容②" style="rounded=0;whiteSpace=wrap;html=1;" parent="Do_X9f2P6NO6NZYZC-At-1" vertex="1">
                    <mxGeometry x="15" y="56" width="70" height="20" as="geometry"/>
                </mxCell>
                <mxCell id="ChO4oFbsvd4cig1xQNgZ-27" value="合計　〇分" style="text;html=1;strokeColor=none;fillColor=none;align=center;verticalAlign=middle;whiteSpace=wrap;rounded=0;" parent="Do_X9f2P6NO6NZYZC-At-1" vertex="1">
                    <mxGeometry x="115" y="56" width="70" height="20" as="geometry"/>
                </mxCell>
                <mxCell id="ChO4oFbsvd4cig1xQNgZ-28" value="…" style="text;html=1;strokeColor=none;fillColor=none;align=center;verticalAlign=middle;whiteSpace=wrap;rounded=0;rotation=90;container=0;" parent="Do_X9f2P6NO6NZYZC-At-1" vertex="1">
                    <mxGeometry x="85" y="76" width="30" height="24" as="geometry"/>
                </mxCell>
                <mxCell id="ChO4oFbsvd4cig1xQNgZ-29" value="１日の合計　〇分" style="text;html=1;strokeColor=none;fillColor=none;align=center;verticalAlign=middle;whiteSpace=wrap;rounded=0;" parent="Do_X9f2P6NO6NZYZC-At-1" vertex="1">
                    <mxGeometry x="85" y="94" width="100" height="20" as="geometry"/>
                </mxCell>
                <mxCell id="ChO4oFbsvd4cig1xQNgZ-30" value="ログアウト" style="rounded=0;whiteSpace=wrap;html=1;" parent="Do_X9f2P6NO6NZYZC-At-1" vertex="1">
                    <mxGeometry x="60" y="113" width="80" height="20" as="geometry"/>
                </mxCell>
                <mxCell id="Do_X9f2P6NO6NZYZC-At-46" style="edgeStyle=none;html=1;exitX=0;exitY=0.5;exitDx=0;exitDy=0;entryX=1;entryY=0.25;entryDx=0;entryDy=0;startArrow=none;startFill=0;endArrow=classic;endFill=1;startSize=6;endSize=6;" parent="1" source="Do_X9f2P6NO6NZYZC-At-2" target="Do_X9f2P6NO6NZYZC-At-40" edge="1">
                    <mxGeometry relative="1" as="geometry"/>
                </mxCell>
                <mxCell id="Do_X9f2P6NO6NZYZC-At-2" value="LoginServlet" style="rounded=1;whiteSpace=wrap;html=1;" parent="1" vertex="1">
                    <mxGeometry x="270" y="251.5" width="110" height="25.5" as="geometry"/>
                </mxCell>
                <mxCell id="Do_X9f2P6NO6NZYZC-At-4" value="loginResult.jsp" style="rounded=1;whiteSpace=wrap;html=1;" parent="1" vertex="1">
                    <mxGeometry x="275" y="296" width="100" height="30" as="geometry"/>
                </mxCell>
                <mxCell id="Do_X9f2P6NO6NZYZC-At-27" style="edgeStyle=none;html=1;exitX=0.5;exitY=1;exitDx=0;exitDy=0;entryX=0.5;entryY=0;entryDx=0;entryDy=0;startArrow=none;startFill=0;endArrow=classic;endFill=1;startSize=6;endSize=6;" parent="1" source="Do_X9f2P6NO6NZYZC-At-5" target="ChO4oFbsvd4cig1xQNgZ-58" edge="1">
                    <mxGeometry relative="1" as="geometry"/>
                </mxCell>
                <mxCell id="Do_X9f2P6NO6NZYZC-At-5" value="index.jsp" style="rounded=1;whiteSpace=wrap;html=1;" parent="1" vertex="1">
                    <mxGeometry x="280" y="60" width="90" height="30" as="geometry"/>
                </mxCell>
                <mxCell id="Do_X9f2P6NO6NZYZC-At-10" value="" style="edgeStyle=none;html=1;exitX=0.5;exitY=1;exitDx=0;exitDy=0;entryX=0.5;entryY=0;entryDx=0;entryDy=0;startArrow=none;startFill=0;endArrow=none;endFill=1;startSize=6;endSize=6;" parent="1" source="ChO4oFbsvd4cig1xQNgZ-3" target="Do_X9f2P6NO6NZYZC-At-9" edge="1">
                    <mxGeometry relative="1" as="geometry">
                        <mxPoint x="325" y="422" as="sourcePoint"/>
                        <mxPoint x="325" y="573" as="targetPoint"/>
                    </mxGeometry>
                </mxCell>
                <mxCell id="Do_X9f2P6NO6NZYZC-At-9" value="registerTasks.jsp" style="rounded=1;whiteSpace=wrap;html=1;" parent="1" vertex="1">
                    <mxGeometry x="269.5" y="506" width="110" height="30" as="geometry"/>
                </mxCell>
                <mxCell id="Do_X9f2P6NO6NZYZC-At-7" value="RegisterTasksServlet" style="rounded=1;whiteSpace=wrap;html=1;" parent="1" vertex="1">
                    <mxGeometry x="262" y="452" width="125" height="26" as="geometry"/>
                </mxCell>
                <mxCell id="Do_X9f2P6NO6NZYZC-At-14" style="edgeStyle=none;html=1;exitX=1;exitY=0.75;exitDx=0;exitDy=0;entryX=0;entryY=0.595;entryDx=0;entryDy=0;entryPerimeter=0;startArrow=none;startFill=0;endArrow=classic;endFill=1;startSize=6;endSize=6;" parent="1" source="ChO4oFbsvd4cig1xQNgZ-9" target="ChO4oFbsvd4cig1xQNgZ-38" edge="1">
                    <mxGeometry relative="1" as="geometry"/>
                </mxCell>
                <mxCell id="Do_X9f2P6NO6NZYZC-At-15" style="edgeStyle=none;html=1;exitX=0;exitY=0.25;exitDx=0;exitDy=0;startArrow=none;startFill=0;endArrow=classic;endFill=1;startSize=6;endSize=6;entryX=1;entryY=0.5;entryDx=0;entryDy=0;" parent="1" source="ChO4oFbsvd4cig1xQNgZ-38" target="Do_X9f2P6NO6NZYZC-At-7" edge="1">
                    <mxGeometry relative="1" as="geometry">
                        <Array as="points">
                            <mxPoint x="550" y="635"/>
                            <mxPoint x="550" y="466"/>
                        </Array>
                        <mxPoint x="400" y="480" as="targetPoint"/>
                    </mxGeometry>
                </mxCell>
                <mxCell id="Do_X9f2P6NO6NZYZC-At-64" style="edgeStyle=none;html=1;exitX=1;exitY=0.5;exitDx=0;exitDy=0;entryX=0;entryY=0.75;entryDx=0;entryDy=0;startArrow=none;startFill=0;endArrow=classic;endFill=1;startSize=6;endSize=6;" parent="1" source="Do_X9f2P6NO6NZYZC-At-16" target="Do_X9f2P6NO6NZYZC-At-51" edge="1">
                    <mxGeometry relative="1" as="geometry"/>
                </mxCell>
                <mxCell id="Do_X9f2P6NO6NZYZC-At-16" value="CompleteTasksServlet" style="rounded=1;whiteSpace=wrap;html=1;" parent="1" vertex="1">
                    <mxGeometry x="725" y="512" width="125" height="28" as="geometry"/>
                </mxCell>
                <mxCell id="Do_X9f2P6NO6NZYZC-At-17" value="completeTasks.jsp" style="rounded=1;whiteSpace=wrap;html=1;" parent="1" vertex="1">
                    <mxGeometry x="735" y="450" width="105" height="28" as="geometry"/>
                </mxCell>
                <mxCell id="Do_X9f2P6NO6NZYZC-At-62" style="edgeStyle=none;html=1;exitX=0.5;exitY=1;exitDx=0;exitDy=0;entryX=0.25;entryY=0;entryDx=0;entryDy=0;startArrow=none;startFill=0;endArrow=classic;endFill=1;startSize=6;endSize=6;" parent="1" source="Do_X9f2P6NO6NZYZC-At-19" target="Do_X9f2P6NO6NZYZC-At-59" edge="1">
                    <mxGeometry relative="1" as="geometry"/>
                </mxCell>
                <mxCell id="Do_X9f2P6NO6NZYZC-At-19" value="HandleTasksServlet" style="rounded=1;whiteSpace=wrap;html=1;" parent="1" vertex="1">
                    <mxGeometry x="438" y="692" width="120" height="30" as="geometry"/>
                </mxCell>
                <mxCell id="Do_X9f2P6NO6NZYZC-At-24" value="handleTasks.jsp" style="rounded=1;whiteSpace=wrap;html=1;" parent="1" vertex="1">
                    <mxGeometry x="565" y="692" width="110" height="30" as="geometry"/>
                </mxCell>
                <mxCell id="Do_X9f2P6NO6NZYZC-At-25" value="POST" style="text;html=1;strokeColor=none;fillColor=none;align=center;verticalAlign=middle;whiteSpace=wrap;rounded=0;" parent="1" vertex="1">
                    <mxGeometry x="325" y="235" width="45" height="16" as="geometry"/>
                </mxCell>
                <mxCell id="Do_X9f2P6NO6NZYZC-At-26" value="フォワード" style="text;html=1;strokeColor=none;fillColor=none;align=center;verticalAlign=middle;whiteSpace=wrap;rounded=0;" parent="1" vertex="1">
                    <mxGeometry x="327" y="276" width="65" height="23" as="geometry"/>
                </mxCell>
                <mxCell id="Do_X9f2P6NO6NZYZC-At-28" value="" style="endArrow=classic;html=1;startSize=6;endSize=6;" parent="1" edge="1">
                    <mxGeometry width="50" height="50" relative="1" as="geometry">
                        <mxPoint x="326" y="30" as="sourcePoint"/>
                        <mxPoint x="326" y="60" as="targetPoint"/>
                    </mxGeometry>
                </mxCell>
                <mxCell id="Do_X9f2P6NO6NZYZC-At-29" style="edgeStyle=none;html=1;exitX=0;exitY=0.5;exitDx=0;exitDy=0;entryX=1;entryY=0.5;entryDx=0;entryDy=0;startArrow=none;startFill=0;endArrow=classic;endFill=1;startSize=6;endSize=6;" parent="1" source="ChO4oFbsvd4cig1xQNgZ-1" target="Do_X9f2P6NO6NZYZC-At-5" edge="1">
                    <mxGeometry relative="1" as="geometry">
                        <Array as="points">
                            <mxPoint x="610" y="330"/>
                            <mxPoint x="610" y="75"/>
                        </Array>
                    </mxGeometry>
                </mxCell>
                <mxCell id="Do_X9f2P6NO6NZYZC-At-30" value="レスポンス" style="text;html=1;strokeColor=none;fillColor=none;align=center;verticalAlign=middle;whiteSpace=wrap;rounded=0;" parent="1" vertex="1">
                    <mxGeometry x="326" y="328" width="70" height="20" as="geometry"/>
                </mxCell>
                <mxCell id="Do_X9f2P6NO6NZYZC-At-31" value="GET" style="text;html=1;strokeColor=none;fillColor=none;align=center;verticalAlign=middle;whiteSpace=wrap;rounded=0;" parent="1" vertex="1">
                    <mxGeometry x="325" y="428" width="40" height="20" as="geometry"/>
                </mxCell>
                <mxCell id="Do_X9f2P6NO6NZYZC-At-32" value="フォワード" style="text;html=1;strokeColor=none;fillColor=none;align=center;verticalAlign=middle;whiteSpace=wrap;rounded=0;" parent="1" vertex="1">
                    <mxGeometry x="324" y="481" width="70" height="20" as="geometry"/>
                </mxCell>
                <mxCell id="Do_X9f2P6NO6NZYZC-At-33" value="レスポンス" style="text;html=1;strokeColor=none;fillColor=none;align=center;verticalAlign=middle;whiteSpace=wrap;rounded=0;" parent="1" vertex="1">
                    <mxGeometry x="326" y="544" width="70" height="20" as="geometry"/>
                </mxCell>
                <mxCell id="Do_X9f2P6NO6NZYZC-At-34" value="GET" style="text;html=1;strokeColor=none;fillColor=none;align=center;verticalAlign=middle;whiteSpace=wrap;rounded=0;" parent="1" vertex="1">
                    <mxGeometry x="435" y="672" width="40" height="18" as="geometry"/>
                </mxCell>
                <mxCell id="Do_X9f2P6NO6NZYZC-At-35" value="フォワード" style="text;html=1;strokeColor=none;fillColor=none;align=center;verticalAlign=middle;whiteSpace=wrap;rounded=0;" parent="1" vertex="1">
                    <mxGeometry x="524" y="677" width="70" height="10" as="geometry"/>
                </mxCell>
                <mxCell id="Do_X9f2P6NO6NZYZC-At-36" value="レスポンス" style="text;html=1;strokeColor=none;fillColor=none;align=center;verticalAlign=middle;whiteSpace=wrap;rounded=0;" parent="1" vertex="1">
                    <mxGeometry x="620" y="672" width="70" height="20" as="geometry"/>
                </mxCell>
                <mxCell id="Do_X9f2P6NO6NZYZC-At-37" value="GET" style="text;html=1;strokeColor=none;fillColor=none;align=center;verticalAlign=middle;whiteSpace=wrap;rounded=0;" parent="1" vertex="1">
                    <mxGeometry x="745" y="555" width="40" height="14" as="geometry"/>
                </mxCell>
                <mxCell id="Do_X9f2P6NO6NZYZC-At-38" value="フォワード" style="text;html=1;strokeColor=none;fillColor=none;align=center;verticalAlign=middle;whiteSpace=wrap;rounded=0;" parent="1" vertex="1">
                    <mxGeometry x="720" y="486" width="70" height="20" as="geometry"/>
                </mxCell>
                <mxCell id="Do_X9f2P6NO6NZYZC-At-39" value="レスポンス" style="text;html=1;strokeColor=none;fillColor=none;align=center;verticalAlign=middle;whiteSpace=wrap;rounded=0;" parent="1" vertex="1">
                    <mxGeometry x="720" y="416" width="70" height="20" as="geometry"/>
                </mxCell>
                <mxCell id="Do_X9f2P6NO6NZYZC-At-44" value="" style="group" parent="1" vertex="1" connectable="0">
                    <mxGeometry x="130" y="260" width="120" height="70.43000000000006" as="geometry"/>
                </mxCell>
                <mxCell id="Do_X9f2P6NO6NZYZC-At-40" value="" style="rounded=1;whiteSpace=wrap;html=1;" parent="Do_X9f2P6NO6NZYZC-At-44" vertex="1">
                    <mxGeometry x="6" width="104" height="52" as="geometry"/>
                </mxCell>
                <mxCell id="Do_X9f2P6NO6NZYZC-At-41" value="リクエストスコープ" style="text;html=1;strokeColor=none;fillColor=none;align=center;verticalAlign=middle;whiteSpace=wrap;rounded=0;" parent="Do_X9f2P6NO6NZYZC-At-44" vertex="1">
                    <mxGeometry y="53.00000000000006" width="120" height="17.43" as="geometry"/>
                </mxCell>
                <mxCell id="Do_X9f2P6NO6NZYZC-At-42" value="&lt;font color=&quot;#f0f0f0&quot;&gt;UserId&lt;br&gt;&lt;/font&gt;" style="rounded=1;whiteSpace=wrap;html=1;fillColor=#0050ef;fontColor=#ffffff;strokeColor=#001DBC;" parent="Do_X9f2P6NO6NZYZC-At-44" vertex="1">
                    <mxGeometry x="16" y="10" width="84" height="32" as="geometry"/>
                </mxCell>
                <mxCell id="Do_X9f2P6NO6NZYZC-At-47" style="edgeStyle=none;html=1;exitX=0;exitY=0.5;exitDx=0;exitDy=0;startArrow=none;startFill=0;endArrow=classic;endFill=1;startSize=6;endSize=6;" parent="1" source="Do_X9f2P6NO6NZYZC-At-4" target="Do_X9f2P6NO6NZYZC-At-4" edge="1">
                    <mxGeometry relative="1" as="geometry">
                        <Array as="points">
                            <mxPoint x="240" y="290"/>
                            <mxPoint x="250" y="330"/>
                        </Array>
                    </mxGeometry>
                </mxCell>
                <mxCell id="Do_X9f2P6NO6NZYZC-At-48" value="取得" style="text;html=1;strokeColor=none;fillColor=none;align=center;verticalAlign=middle;whiteSpace=wrap;rounded=0;" parent="1" vertex="1">
                    <mxGeometry x="243" y="331" width="50" height="14" as="geometry"/>
                </mxCell>
                <mxCell id="Do_X9f2P6NO6NZYZC-At-50" value="" style="group" parent="1" vertex="1" connectable="0">
                    <mxGeometry x="880" y="463" width="120" height="70.43000000000006" as="geometry"/>
                </mxCell>
                <mxCell id="Do_X9f2P6NO6NZYZC-At-51" value="" style="rounded=1;whiteSpace=wrap;html=1;" parent="Do_X9f2P6NO6NZYZC-At-50" vertex="1">
                    <mxGeometry x="6" y="-1" width="104" height="52" as="geometry"/>
                </mxCell>
                <mxCell id="Do_X9f2P6NO6NZYZC-At-52" value="セッションスコープ" style="text;html=1;strokeColor=none;fillColor=none;align=center;verticalAlign=middle;whiteSpace=wrap;rounded=0;" parent="Do_X9f2P6NO6NZYZC-At-50" vertex="1">
                    <mxGeometry y="53.00000000000006" width="120" height="17.43" as="geometry"/>
                </mxCell>
                <mxCell id="Do_X9f2P6NO6NZYZC-At-53" value="&lt;font color=&quot;#f0f0f0&quot;&gt;taskList&lt;br&gt;&lt;/font&gt;" style="rounded=1;whiteSpace=wrap;html=1;fillColor=#0050ef;fontColor=#ffffff;strokeColor=#001DBC;" parent="Do_X9f2P6NO6NZYZC-At-50" vertex="1">
                    <mxGeometry x="16" y="9" width="84" height="32" as="geometry"/>
                </mxCell>
                <mxCell id="Do_X9f2P6NO6NZYZC-At-56" style="edgeStyle=none;html=1;exitX=0.5;exitY=1;exitDx=0;exitDy=0;startArrow=none;startFill=0;endArrow=classic;endFill=1;startSize=6;endSize=6;" parent="1" source="Do_X9f2P6NO6NZYZC-At-24" target="Do_X9f2P6NO6NZYZC-At-24" edge="1">
                    <mxGeometry relative="1" as="geometry">
                        <Array as="points">
                            <mxPoint x="650" y="730"/>
                            <mxPoint x="610" y="740"/>
                        </Array>
                    </mxGeometry>
                </mxCell>
                <mxCell id="Do_X9f2P6NO6NZYZC-At-57" value="取得" style="text;html=1;strokeColor=none;fillColor=none;align=center;verticalAlign=middle;whiteSpace=wrap;rounded=0;" parent="1" vertex="1">
                    <mxGeometry x="645" y="732" width="30" height="20" as="geometry"/>
                </mxCell>
                <mxCell id="Do_X9f2P6NO6NZYZC-At-58" value="" style="group" parent="1" vertex="1" connectable="0">
                    <mxGeometry x="525" y="742" width="120" height="70.43000000000006" as="geometry"/>
                </mxCell>
                <mxCell id="Do_X9f2P6NO6NZYZC-At-59" value="" style="rounded=1;whiteSpace=wrap;html=1;" parent="Do_X9f2P6NO6NZYZC-At-58" vertex="1">
                    <mxGeometry x="6" width="104" height="52" as="geometry"/>
                </mxCell>
                <mxCell id="Do_X9f2P6NO6NZYZC-At-60" value="セッションスコープ" style="text;html=1;strokeColor=none;fillColor=none;align=center;verticalAlign=middle;whiteSpace=wrap;rounded=0;" parent="Do_X9f2P6NO6NZYZC-At-58" vertex="1">
                    <mxGeometry y="53.00000000000006" width="120" height="17.43" as="geometry"/>
                </mxCell>
                <mxCell id="Do_X9f2P6NO6NZYZC-At-61" value="&lt;font color=&quot;#f0f0f0&quot;&gt;taskList&lt;br&gt;&lt;/font&gt;" style="rounded=1;whiteSpace=wrap;html=1;fillColor=#0050ef;fontColor=#ffffff;strokeColor=#001DBC;" parent="Do_X9f2P6NO6NZYZC-At-58" vertex="1">
                    <mxGeometry x="16" y="10" width="84" height="32" as="geometry"/>
                </mxCell>
                <mxCell id="Do_X9f2P6NO6NZYZC-At-65" style="edgeStyle=none;html=1;exitX=1;exitY=0.5;exitDx=0;exitDy=0;startArrow=none;startFill=0;endArrow=classic;endFill=1;startSize=6;endSize=6;" parent="1" source="Do_X9f2P6NO6NZYZC-At-17" target="Do_X9f2P6NO6NZYZC-At-17" edge="1">
                    <mxGeometry relative="1" as="geometry">
                        <Array as="points">
                            <mxPoint x="890" y="480"/>
                            <mxPoint x="880" y="460"/>
                        </Array>
                    </mxGeometry>
                </mxCell>
                <mxCell id="Do_X9f2P6NO6NZYZC-At-67" value="取得" style="text;html=1;strokeColor=none;fillColor=none;align=center;verticalAlign=middle;whiteSpace=wrap;rounded=0;" parent="1" vertex="1">
                    <mxGeometry x="855" y="442" width="40" height="18" as="geometry"/>
                </mxCell>
                <mxCell id="Uum_vW99iRnjQ9fhg4bo-2" value="" style="group" parent="1" vertex="1" connectable="0">
                    <mxGeometry x="220" y="573" width="210" height="179" as="geometry"/>
                </mxCell>
                <mxCell id="ChO4oFbsvd4cig1xQNgZ-9" value="" style="rounded=0;whiteSpace=wrap;html=1;container=0;" parent="Uum_vW99iRnjQ9fhg4bo-2" vertex="1">
                    <mxGeometry width="210" height="179" as="geometry"/>
                </mxCell>
                <mxCell id="ChO4oFbsvd4cig1xQNgZ-10" value="タスク入力画面" style="text;html=1;strokeColor=none;fillColor=none;align=center;verticalAlign=middle;whiteSpace=wrap;rounded=0;container=0;" parent="Uum_vW99iRnjQ9fhg4bo-2" vertex="1">
                    <mxGeometry x="10" y="4" width="120" height="13" as="geometry"/>
                </mxCell>
                <mxCell id="ChO4oFbsvd4cig1xQNgZ-11" value="業務内容" style="rounded=0;whiteSpace=wrap;html=1;container=0;" parent="Uum_vW99iRnjQ9fhg4bo-2" vertex="1">
                    <mxGeometry x="10" y="20" width="50" height="20" as="geometry"/>
                </mxCell>
                <mxCell id="ChO4oFbsvd4cig1xQNgZ-12" value="詳しい内容" style="rounded=0;whiteSpace=wrap;html=1;container=0;" parent="Uum_vW99iRnjQ9fhg4bo-2" vertex="1">
                    <mxGeometry x="70" y="19" width="120" height="20" as="geometry"/>
                </mxCell>
                <mxCell id="ChO4oFbsvd4cig1xQNgZ-13" value="予定時間" style="rounded=0;whiteSpace=wrap;html=1;container=0;" parent="Uum_vW99iRnjQ9fhg4bo-2" vertex="1">
                    <mxGeometry x="10" y="44" width="60" height="20" as="geometry"/>
                </mxCell>
                <mxCell id="ChO4oFbsvd4cig1xQNgZ-14" value="登録" style="rounded=0;whiteSpace=wrap;html=1;container=0;" parent="Uum_vW99iRnjQ9fhg4bo-2" vertex="1">
                    <mxGeometry x="140" y="43" width="50" height="20" as="geometry"/>
                </mxCell>
                <mxCell id="ChO4oFbsvd4cig1xQNgZ-15" value="登録一覧" style="text;html=1;strokeColor=none;fillColor=none;align=center;verticalAlign=middle;whiteSpace=wrap;rounded=0;container=0;" parent="Uum_vW99iRnjQ9fhg4bo-2" vertex="1">
                    <mxGeometry x="24" y="68" width="56" height="15" as="geometry"/>
                </mxCell>
                <mxCell id="ChO4oFbsvd4cig1xQNgZ-16" value="・業務内容/予定時間/期限" style="text;html=1;strokeColor=none;fillColor=none;align=center;verticalAlign=middle;whiteSpace=wrap;rounded=0;container=0;" parent="Uum_vW99iRnjQ9fhg4bo-2" vertex="1">
                    <mxGeometry x="15" y="81" width="180" height="20" as="geometry"/>
                </mxCell>
                <mxCell id="ChO4oFbsvd4cig1xQNgZ-17" value="・業務内容/予定時間/期限" style="text;html=1;strokeColor=none;fillColor=none;align=center;verticalAlign=middle;whiteSpace=wrap;rounded=0;fontStyle=0;container=0;" parent="Uum_vW99iRnjQ9fhg4bo-2" vertex="1">
                    <mxGeometry x="15" y="96" width="180" height="20" as="geometry"/>
                </mxCell>
                <mxCell id="ChO4oFbsvd4cig1xQNgZ-18" value="・業務内容/予定時間/期限" style="text;html=1;strokeColor=none;fillColor=none;align=center;verticalAlign=middle;whiteSpace=wrap;rounded=0;fontStyle=0;container=0;" parent="Uum_vW99iRnjQ9fhg4bo-2" vertex="1">
                    <mxGeometry x="15" y="111" width="180" height="20" as="geometry"/>
                </mxCell>
                <mxCell id="ChO4oFbsvd4cig1xQNgZ-19" value="…" style="text;html=1;strokeColor=none;fillColor=none;align=center;verticalAlign=middle;whiteSpace=wrap;rounded=0;rotation=90;container=0;" parent="Uum_vW99iRnjQ9fhg4bo-2" vertex="1">
                    <mxGeometry x="90" y="125" width="30" height="24" as="geometry"/>
                </mxCell>
                <mxCell id="ChO4oFbsvd4cig1xQNgZ-20" value="業務開始" style="rounded=0;whiteSpace=wrap;html=1;container=0;" parent="Uum_vW99iRnjQ9fhg4bo-2" vertex="1">
                    <mxGeometry x="70" y="145" width="70" height="20" as="geometry"/>
                </mxCell>
                <mxCell id="Uum_vW99iRnjQ9fhg4bo-1" value="期限" style="rounded=0;whiteSpace=wrap;html=1;container=0;" parent="Uum_vW99iRnjQ9fhg4bo-2" vertex="1">
                    <mxGeometry x="78" y="44" width="40" height="20" as="geometry"/>
                </mxCell>
                <mxCell id="r3m5mqF4_d7Bc0yV3VPq-2" style="edgeStyle=none;html=1;exitX=1;exitY=0.25;exitDx=0;exitDy=0;entryX=0;entryY=0.5;entryDx=0;entryDy=0;" parent="1" source="GUYyq6ClMS2TKI2P8UIb-1" target="Do_X9f2P6NO6NZYZC-At-7" edge="1">
                    <mxGeometry relative="1" as="geometry"/>
                </mxCell>
                <mxCell id="GUYyq6ClMS2TKI2P8UIb-1" value="業務内容&lt;br&gt;詳しい内容&lt;br&gt;予定時間&lt;br&gt;期限" style="rounded=0;whiteSpace=wrap;html=1;" parent="1" vertex="1">
                    <mxGeometry x="110" y="518" width="80" height="69" as="geometry"/>
                </mxCell>
                <mxCell id="GUYyq6ClMS2TKI2P8UIb-2" value="入力値" style="text;html=1;strokeColor=none;fillColor=none;align=center;verticalAlign=middle;whiteSpace=wrap;rounded=0;" parent="1" vertex="1">
                    <mxGeometry x="125" y="589" width="50" height="16" as="geometry"/>
                </mxCell>
                <mxCell id="GUYyq6ClMS2TKI2P8UIb-3" value="POST" style="text;html=1;strokeColor=none;fillColor=none;align=center;verticalAlign=middle;whiteSpace=wrap;rounded=0;" parent="1" vertex="1">
                    <mxGeometry x="130" y="500" width="40" height="18" as="geometry"/>
                </mxCell>
                <mxCell id="r3m5mqF4_d7Bc0yV3VPq-1" style="edgeStyle=none;html=1;exitX=0.25;exitY=0;exitDx=0;exitDy=0;entryX=1;entryY=0.5;entryDx=0;entryDy=0;endArrow=none;endFill=0;" parent="1" source="ChO4oFbsvd4cig1xQNgZ-10" target="GUYyq6ClMS2TKI2P8UIb-1" edge="1">
                    <mxGeometry relative="1" as="geometry"/>
                </mxCell>
                <mxCell id="r3m5mqF4_d7Bc0yV3VPq-3" value="「登録」&lt;br&gt;をクリック" style="text;html=1;strokeColor=none;fillColor=none;align=center;verticalAlign=middle;whiteSpace=wrap;rounded=0;" parent="1" vertex="1">
                    <mxGeometry x="190" y="525" width="80" height="30" as="geometry"/>
                </mxCell>
                <mxCell id="fN5V1m4LE_Y-9sauuG-X-1" value="タスク登録時&lt;br&gt;（基本アーキテクチャ図①）" style="rounded=1;whiteSpace=wrap;html=1;fillColor=#60a917;fontColor=#ffffff;strokeColor=#2D7600;" parent="1" vertex="1">
                    <mxGeometry x="100" y="437" width="90" height="56" as="geometry"/>
                </mxCell>
                <mxCell id="SGnsv2YFMOdHHN-GK-mx-1" value="業務終了時&lt;br&gt;（基本アーキテクチャ図③）" style="rounded=1;whiteSpace=wrap;html=1;fillColor=#60a917;fontColor=#ffffff;strokeColor=#2D7600;" parent="1" vertex="1">
                    <mxGeometry x="910" y="414" width="160" height="34" as="geometry"/>
                </mxCell>
                <mxCell id="K22AmP6KD4agTMmqbVdK-5" value="" style="group" parent="1" vertex="1" connectable="0">
                    <mxGeometry x="930" y="699.5" width="70" height="85" as="geometry"/>
                </mxCell>
                <mxCell id="K22AmP6KD4agTMmqbVdK-1" value="開始時間&lt;br&gt;終了時間" style="rounded=0;whiteSpace=wrap;html=1;" parent="K22AmP6KD4agTMmqbVdK-5" vertex="1">
                    <mxGeometry y="18" width="70" height="43" as="geometry"/>
                </mxCell>
                <mxCell id="K22AmP6KD4agTMmqbVdK-3" value="入力値" style="text;html=1;strokeColor=none;fillColor=none;align=center;verticalAlign=middle;whiteSpace=wrap;rounded=0;" parent="K22AmP6KD4agTMmqbVdK-5" vertex="1">
                    <mxGeometry x="16" y="62" width="40" height="23" as="geometry"/>
                </mxCell>
                <mxCell id="K22AmP6KD4agTMmqbVdK-4" value="POST" style="text;html=1;strokeColor=none;fillColor=none;align=center;verticalAlign=middle;whiteSpace=wrap;rounded=0;" parent="K22AmP6KD4agTMmqbVdK-5" vertex="1">
                    <mxGeometry x="11" width="50" height="18" as="geometry"/>
                </mxCell>
                <mxCell id="K22AmP6KD4agTMmqbVdK-6" style="edgeStyle=none;html=1;exitX=1;exitY=0.75;exitDx=0;exitDy=0;entryX=0;entryY=0.5;entryDx=0;entryDy=0;endArrow=none;endFill=0;" parent="1" source="ChO4oFbsvd4cig1xQNgZ-38" target="K22AmP6KD4agTMmqbVdK-1" edge="1">
                    <mxGeometry relative="1" as="geometry"/>
                </mxCell>
                <mxCell id="K22AmP6KD4agTMmqbVdK-7" style="edgeStyle=none;html=1;exitX=0;exitY=1;exitDx=0;exitDy=0;entryX=0.671;entryY=1.045;entryDx=0;entryDy=0;entryPerimeter=0;endArrow=classic;endFill=1;" parent="1" source="K22AmP6KD4agTMmqbVdK-1" target="Do_X9f2P6NO6NZYZC-At-19" edge="1">
                    <mxGeometry relative="1" as="geometry">
                        <Array as="points">
                            <mxPoint x="930" y="810"/>
                            <mxPoint x="519" y="810"/>
                        </Array>
                    </mxGeometry>
                </mxCell>
                <mxCell id="K22AmP6KD4agTMmqbVdK-8" value="タスク完了時間追加時&lt;br&gt;（基本アーキテクチャ図②）" style="rounded=1;whiteSpace=wrap;html=1;fillColor=#60a917;fontColor=#ffffff;strokeColor=#2D7600;" parent="1" vertex="1">
                    <mxGeometry x="910" y="656" width="160" height="34" as="geometry"/>
                </mxCell>
                <mxCell id="VbUikfrW8Iw_Fm2A7qiA-1" value="タスク登録一覧表示&lt;br&gt;（基本アーキテクチャ図④）" style="rounded=1;whiteSpace=wrap;html=1;fillColor=#60a917;fontColor=#ffffff;strokeColor=#2D7600;" parent="1" vertex="1">
                    <mxGeometry x="387" y="499" width="163" height="37" as="geometry"/>
                </mxCell>
                <mxCell id="zGa8FTK2iXjAq-ZqZvjB-1" value="業務開始時&lt;br&gt;（基本アーキテクチャ図⑤）" style="rounded=1;whiteSpace=wrap;html=1;fillColor=#60a917;fontColor=#ffffff;strokeColor=#2D7600;" parent="1" vertex="1">
                    <mxGeometry x="485" y="638" width="160" height="34" as="geometry"/>
                </mxCell>
            </root>
        </mxGraphModel>
    </diagram>
    <diagram id="7Up3KoEng6Ixa2G-ldkI" name="基本アーキテクチャ図">
        <mxGraphModel dx="746" dy="419" grid="1" gridSize="10" guides="1" tooltips="1" connect="1" arrows="1" fold="1" page="1" pageScale="1" pageWidth="1169" pageHeight="827" math="0" shadow="0">
            <root>
                <mxCell id="0"/>
                <mxCell id="1" parent="0"/>
                <mxCell id="CAcwIU8OzIOQPy8CFaTo-1" style="edgeStyle=none;html=1;entryX=0;entryY=0.5;entryDx=0;entryDy=0;" parent="1" target="CAcwIU8OzIOQPy8CFaTo-4" edge="1">
                    <mxGeometry relative="1" as="geometry">
                        <mxPoint x="40" y="122" as="sourcePoint"/>
                    </mxGeometry>
                </mxCell>
                <mxCell id="CAcwIU8OzIOQPy8CFaTo-2" style="edgeStyle=none;html=1;exitX=1;exitY=0.25;exitDx=0;exitDy=0;entryX=0;entryY=0.25;entryDx=0;entryDy=0;" parent="1" source="CAcwIU8OzIOQPy8CFaTo-4" target="CAcwIU8OzIOQPy8CFaTo-7" edge="1">
                    <mxGeometry relative="1" as="geometry"/>
                </mxCell>
                <mxCell id="CAcwIU8OzIOQPy8CFaTo-3" style="edgeStyle=none;html=1;exitX=0.345;exitY=1.102;exitDx=0;exitDy=0;entryX=0.343;entryY=-0.016;entryDx=0;entryDy=0;exitPerimeter=0;entryPerimeter=0;" parent="1" source="CAcwIU8OzIOQPy8CFaTo-4" target="CAcwIU8OzIOQPy8CFaTo-16" edge="1">
                    <mxGeometry relative="1" as="geometry">
                        <Array as="points">
                            <mxPoint x="220" y="218"/>
                        </Array>
                    </mxGeometry>
                </mxCell>
                <mxCell id="6WHKnQVGSIc18FdkxTux-4" style="edgeStyle=none;html=1;exitX=0.75;exitY=1;exitDx=0;exitDy=0;endArrow=classic;endFill=1;" parent="1" source="CAcwIU8OzIOQPy8CFaTo-4" edge="1">
                    <mxGeometry relative="1" as="geometry">
                        <mxPoint x="300" y="220" as="targetPoint"/>
                        <Array as="points">
                            <mxPoint x="320" y="180"/>
                        </Array>
                    </mxGeometry>
                </mxCell>
                <mxCell id="CAcwIU8OzIOQPy8CFaTo-4" value="RegisterTasksServlet&lt;br&gt;doPost()" style="rounded=1;whiteSpace=wrap;html=1;" parent="1" vertex="1">
                    <mxGeometry x="203" y="107" width="127" height="33" as="geometry"/>
                </mxCell>
                <mxCell id="CAcwIU8OzIOQPy8CFaTo-5" style="edgeStyle=none;html=1;exitX=0;exitY=0.75;exitDx=0;exitDy=0;entryX=1;entryY=0.75;entryDx=0;entryDy=0;" parent="1" source="CAcwIU8OzIOQPy8CFaTo-7" target="CAcwIU8OzIOQPy8CFaTo-4" edge="1">
                    <mxGeometry relative="1" as="geometry">
                        <mxPoint x="340" y="130" as="targetPoint"/>
                    </mxGeometry>
                </mxCell>
                <mxCell id="CAcwIU8OzIOQPy8CFaTo-6" style="edgeStyle=none;html=1;exitX=1;exitY=0.25;exitDx=0;exitDy=0;entryX=0;entryY=0.25;entryDx=0;entryDy=0;" parent="1" source="CAcwIU8OzIOQPy8CFaTo-7" target="CAcwIU8OzIOQPy8CFaTo-19" edge="1">
                    <mxGeometry relative="1" as="geometry"/>
                </mxCell>
                <mxCell id="CAcwIU8OzIOQPy8CFaTo-7" value="PostTasksLogic&lt;br&gt;execute()" style="rounded=1;whiteSpace=wrap;html=1;" parent="1" vertex="1">
                    <mxGeometry x="443" y="107" width="130" height="30" as="geometry"/>
                </mxCell>
                <mxCell id="CAcwIU8OzIOQPy8CFaTo-8" style="edgeStyle=none;html=1;exitX=0;exitY=0.75;exitDx=0;exitDy=0;entryX=1;entryY=0.75;entryDx=0;entryDy=0;" parent="1" source="CAcwIU8OzIOQPy8CFaTo-19" target="CAcwIU8OzIOQPy8CFaTo-7" edge="1">
                    <mxGeometry relative="1" as="geometry"/>
                </mxCell>
                <mxCell id="CAcwIU8OzIOQPy8CFaTo-9" style="edgeStyle=none;html=1;exitX=1;exitY=0.5;exitDx=0;exitDy=0;entryX=0;entryY=0.5;entryDx=0;entryDy=0;entryPerimeter=0;" parent="1" source="CAcwIU8OzIOQPy8CFaTo-19" target="CAcwIU8OzIOQPy8CFaTo-12" edge="1">
                    <mxGeometry relative="1" as="geometry"/>
                </mxCell>
                <mxCell id="CAcwIU8OzIOQPy8CFaTo-10" value="Servlet" style="text;html=1;strokeColor=none;fillColor=none;align=center;verticalAlign=middle;whiteSpace=wrap;rounded=0;" parent="1" vertex="1">
                    <mxGeometry x="240" y="84" width="60" height="30" as="geometry"/>
                </mxCell>
                <mxCell id="CAcwIU8OzIOQPy8CFaTo-12" value="TASKS&lt;br&gt;テーブル" style="shape=cylinder3;whiteSpace=wrap;html=1;boundedLbl=1;backgroundOutline=1;size=15;" parent="1" vertex="1">
                    <mxGeometry x="853" y="77" width="100" height="90" as="geometry"/>
                </mxCell>
                <mxCell id="CAcwIU8OzIOQPy8CFaTo-13" value="Tasks" style="text;html=1;strokeColor=none;fillColor=none;align=center;verticalAlign=middle;whiteSpace=wrap;rounded=0;" parent="1" vertex="1">
                    <mxGeometry x="342" y="91" width="75" height="26" as="geometry"/>
                </mxCell>
                <mxCell id="CAcwIU8OzIOQPy8CFaTo-14" value="ture" style="text;html=1;strokeColor=none;fillColor=none;align=center;verticalAlign=middle;whiteSpace=wrap;rounded=0;" parent="1" vertex="1">
                    <mxGeometry x="600.5" y="128" width="60" height="30" as="geometry"/>
                </mxCell>
                <mxCell id="CAcwIU8OzIOQPy8CFaTo-15" style="edgeStyle=none;html=1;exitX=0;exitY=0.5;exitDx=0;exitDy=0;" parent="1" source="CAcwIU8OzIOQPy8CFaTo-16" edge="1">
                    <mxGeometry relative="1" as="geometry">
                        <mxPoint x="143" y="313" as="targetPoint"/>
                    </mxGeometry>
                </mxCell>
                <mxCell id="CAcwIU8OzIOQPy8CFaTo-16" value="registerTasks.jsp" style="rounded=1;whiteSpace=wrap;html=1;" parent="1" vertex="1">
                    <mxGeometry x="203" y="298" width="140" height="30" as="geometry"/>
                </mxCell>
                <mxCell id="CAcwIU8OzIOQPy8CFaTo-17" value="フォワード" style="text;html=1;strokeColor=none;fillColor=none;align=center;verticalAlign=middle;whiteSpace=wrap;rounded=0;" parent="1" vertex="1">
                    <mxGeometry x="153" y="200" width="70" height="20" as="geometry"/>
                </mxCell>
                <mxCell id="CAcwIU8OzIOQPy8CFaTo-18" value="" style="edgeStyle=none;html=1;exitX=0;exitY=0.5;exitDx=0;exitDy=0;exitPerimeter=0;endArrow=none;" parent="1" source="CAcwIU8OzIOQPy8CFaTo-12" target="CAcwIU8OzIOQPy8CFaTo-19" edge="1">
                    <mxGeometry relative="1" as="geometry">
                        <mxPoint x="673" y="122" as="targetPoint"/>
                        <mxPoint x="853" y="122" as="sourcePoint"/>
                    </mxGeometry>
                </mxCell>
                <mxCell id="CAcwIU8OzIOQPy8CFaTo-19" value="RegisterTasksDAO&lt;br&gt;registerTasks()" style="rounded=1;whiteSpace=wrap;html=1;" parent="1" vertex="1">
                    <mxGeometry x="693" y="107" width="110" height="30" as="geometry"/>
                </mxCell>
                <mxCell id="CAcwIU8OzIOQPy8CFaTo-20" value="Tasks" style="text;html=1;strokeColor=none;fillColor=none;align=center;verticalAlign=middle;whiteSpace=wrap;rounded=0;" parent="1" vertex="1">
                    <mxGeometry x="593" y="90" width="75" height="26" as="geometry"/>
                </mxCell>
                <mxCell id="6WHKnQVGSIc18FdkxTux-1" value="業務内容&lt;br&gt;詳しい内容&lt;br&gt;予定時間&lt;br&gt;期限" style="rounded=0;whiteSpace=wrap;html=1;" parent="1" vertex="1">
                    <mxGeometry x="77" y="87" width="80" height="69" as="geometry"/>
                </mxCell>
                <mxCell id="6WHKnQVGSIc18FdkxTux-2" value="入力値" style="text;html=1;strokeColor=none;fillColor=none;align=center;verticalAlign=middle;whiteSpace=wrap;rounded=0;" parent="1" vertex="1">
                    <mxGeometry x="92" y="161" width="50" height="16" as="geometry"/>
                </mxCell>
                <mxCell id="6WHKnQVGSIc18FdkxTux-3" value="POST" style="text;html=1;strokeColor=none;fillColor=none;align=center;verticalAlign=middle;whiteSpace=wrap;rounded=0;" parent="1" vertex="1">
                    <mxGeometry x="97" y="69" width="40" height="18" as="geometry"/>
                </mxCell>
                <mxCell id="6WHKnQVGSIc18FdkxTux-5" value="リクエストスコープ" style="rounded=1;whiteSpace=wrap;html=1;" parent="1" vertex="1">
                    <mxGeometry x="262" y="220" width="68" height="33" as="geometry"/>
                </mxCell>
                <mxCell id="6WHKnQVGSIc18FdkxTux-6" style="edgeStyle=none;html=1;exitX=0.75;exitY=0;exitDx=0;exitDy=0;endArrow=classic;endFill=1;entryX=0.587;entryY=-0.016;entryDx=0;entryDy=0;entryPerimeter=0;" parent="1" source="CAcwIU8OzIOQPy8CFaTo-16" target="CAcwIU8OzIOQPy8CFaTo-16" edge="1">
                    <mxGeometry relative="1" as="geometry">
                        <Array as="points">
                            <mxPoint x="340" y="280"/>
                            <mxPoint x="290" y="250"/>
                        </Array>
                    </mxGeometry>
                </mxCell>
                <mxCell id="6WHKnQVGSIc18FdkxTux-7" value="取得" style="text;html=1;strokeColor=none;fillColor=none;align=center;verticalAlign=middle;whiteSpace=wrap;rounded=0;" parent="1" vertex="1">
                    <mxGeometry x="330" y="250" width="60" height="30" as="geometry"/>
                </mxCell>
                <mxCell id="6WHKnQVGSIc18FdkxTux-8" value="taskList" style="rounded=1;whiteSpace=wrap;html=1;" parent="1" vertex="1">
                    <mxGeometry x="334" y="272" width="60" height="20" as="geometry"/>
                </mxCell>
                <mxCell id="6WHKnQVGSIc18FdkxTux-9" style="edgeStyle=none;html=1;entryX=0;entryY=0.5;entryDx=0;entryDy=0;startArrow=none;" parent="1" source="6WHKnQVGSIc18FdkxTux-29" target="6WHKnQVGSIc18FdkxTux-13" edge="1">
                    <mxGeometry relative="1" as="geometry">
                        <mxPoint x="50" y="474" as="sourcePoint"/>
                    </mxGeometry>
                </mxCell>
                <mxCell id="6WHKnQVGSIc18FdkxTux-10" style="edgeStyle=none;html=1;exitX=1;exitY=0.25;exitDx=0;exitDy=0;entryX=0;entryY=0.25;entryDx=0;entryDy=0;" parent="1" source="6WHKnQVGSIc18FdkxTux-13" target="6WHKnQVGSIc18FdkxTux-16" edge="1">
                    <mxGeometry relative="1" as="geometry"/>
                </mxCell>
                <mxCell id="6WHKnQVGSIc18FdkxTux-11" style="edgeStyle=none;html=1;exitX=0.345;exitY=1.102;exitDx=0;exitDy=0;entryX=0.343;entryY=-0.016;entryDx=0;entryDy=0;exitPerimeter=0;entryPerimeter=0;" parent="1" source="6WHKnQVGSIc18FdkxTux-13" target="6WHKnQVGSIc18FdkxTux-24" edge="1">
                    <mxGeometry relative="1" as="geometry">
                        <Array as="points">
                            <mxPoint x="230" y="570"/>
                        </Array>
                    </mxGeometry>
                </mxCell>
                <mxCell id="6WHKnQVGSIc18FdkxTux-12" style="edgeStyle=none;html=1;exitX=0.75;exitY=1;exitDx=0;exitDy=0;endArrow=classic;endFill=1;" parent="1" source="6WHKnQVGSIc18FdkxTux-13" edge="1">
                    <mxGeometry relative="1" as="geometry">
                        <mxPoint x="310" y="572" as="targetPoint"/>
                        <Array as="points">
                            <mxPoint x="330" y="532"/>
                        </Array>
                    </mxGeometry>
                </mxCell>
                <mxCell id="6WHKnQVGSIc18FdkxTux-13" value="HandleTasksServlet&lt;br&gt;doPost()" style="rounded=1;whiteSpace=wrap;html=1;" parent="1" vertex="1">
                    <mxGeometry x="213" y="459" width="127" height="33" as="geometry"/>
                </mxCell>
                <mxCell id="6WHKnQVGSIc18FdkxTux-14" style="edgeStyle=none;html=1;exitX=0;exitY=0.75;exitDx=0;exitDy=0;entryX=1;entryY=0.75;entryDx=0;entryDy=0;" parent="1" source="6WHKnQVGSIc18FdkxTux-16" target="6WHKnQVGSIc18FdkxTux-13" edge="1">
                    <mxGeometry relative="1" as="geometry">
                        <mxPoint x="350" y="482" as="targetPoint"/>
                    </mxGeometry>
                </mxCell>
                <mxCell id="6WHKnQVGSIc18FdkxTux-15" style="edgeStyle=none;html=1;exitX=1;exitY=0.25;exitDx=0;exitDy=0;entryX=0;entryY=0.25;entryDx=0;entryDy=0;" parent="1" source="6WHKnQVGSIc18FdkxTux-16" target="6WHKnQVGSIc18FdkxTux-27" edge="1">
                    <mxGeometry relative="1" as="geometry"/>
                </mxCell>
                <mxCell id="6WHKnQVGSIc18FdkxTux-16" value="UpdateTasksTimeLogic&lt;br&gt;execute()" style="rounded=1;whiteSpace=wrap;html=1;" parent="1" vertex="1">
                    <mxGeometry x="453" y="459" width="130" height="30" as="geometry"/>
                </mxCell>
                <mxCell id="6WHKnQVGSIc18FdkxTux-17" style="edgeStyle=none;html=1;exitX=0;exitY=0.75;exitDx=0;exitDy=0;entryX=1;entryY=0.75;entryDx=0;entryDy=0;" parent="1" source="6WHKnQVGSIc18FdkxTux-27" target="6WHKnQVGSIc18FdkxTux-16" edge="1">
                    <mxGeometry relative="1" as="geometry"/>
                </mxCell>
                <mxCell id="6WHKnQVGSIc18FdkxTux-18" style="edgeStyle=none;html=1;exitX=1;exitY=0.5;exitDx=0;exitDy=0;entryX=0;entryY=0.5;entryDx=0;entryDy=0;entryPerimeter=0;" parent="1" source="6WHKnQVGSIc18FdkxTux-27" target="6WHKnQVGSIc18FdkxTux-20" edge="1">
                    <mxGeometry relative="1" as="geometry"/>
                </mxCell>
                <mxCell id="6WHKnQVGSIc18FdkxTux-19" value="Servlet" style="text;html=1;strokeColor=none;fillColor=none;align=center;verticalAlign=middle;whiteSpace=wrap;rounded=0;" parent="1" vertex="1">
                    <mxGeometry x="250" y="436" width="60" height="30" as="geometry"/>
                </mxCell>
                <mxCell id="6WHKnQVGSIc18FdkxTux-20" value="TASKS&lt;br&gt;テーブル" style="shape=cylinder3;whiteSpace=wrap;html=1;boundedLbl=1;backgroundOutline=1;size=15;" parent="1" vertex="1">
                    <mxGeometry x="863" y="429" width="100" height="90" as="geometry"/>
                </mxCell>
                <mxCell id="6WHKnQVGSIc18FdkxTux-21" value="Tasks" style="text;html=1;strokeColor=none;fillColor=none;align=center;verticalAlign=middle;whiteSpace=wrap;rounded=0;" parent="1" vertex="1">
                    <mxGeometry x="357" y="443" width="75" height="26" as="geometry"/>
                </mxCell>
                <mxCell id="6WHKnQVGSIc18FdkxTux-22" value="ture" style="text;html=1;strokeColor=none;fillColor=none;align=center;verticalAlign=middle;whiteSpace=wrap;rounded=0;" parent="1" vertex="1">
                    <mxGeometry x="610.5" y="480" width="60" height="30" as="geometry"/>
                </mxCell>
                <mxCell id="6WHKnQVGSIc18FdkxTux-23" style="edgeStyle=none;html=1;exitX=0;exitY=0.5;exitDx=0;exitDy=0;" parent="1" source="6WHKnQVGSIc18FdkxTux-24" edge="1">
                    <mxGeometry relative="1" as="geometry">
                        <mxPoint x="153" y="665" as="targetPoint"/>
                    </mxGeometry>
                </mxCell>
                <mxCell id="6WHKnQVGSIc18FdkxTux-24" value="HandleTasks.jsp" style="rounded=1;whiteSpace=wrap;html=1;" parent="1" vertex="1">
                    <mxGeometry x="213" y="650" width="140" height="30" as="geometry"/>
                </mxCell>
                <mxCell id="6WHKnQVGSIc18FdkxTux-25" value="フォワード" style="text;html=1;strokeColor=none;fillColor=none;align=center;verticalAlign=middle;whiteSpace=wrap;rounded=0;" parent="1" vertex="1">
                    <mxGeometry x="163" y="552" width="70" height="20" as="geometry"/>
                </mxCell>
                <mxCell id="6WHKnQVGSIc18FdkxTux-26" value="" style="edgeStyle=none;html=1;exitX=0;exitY=0.5;exitDx=0;exitDy=0;exitPerimeter=0;endArrow=none;" parent="1" source="6WHKnQVGSIc18FdkxTux-20" target="6WHKnQVGSIc18FdkxTux-27" edge="1">
                    <mxGeometry relative="1" as="geometry">
                        <mxPoint x="683" y="474" as="targetPoint"/>
                        <mxPoint x="863" y="474" as="sourcePoint"/>
                    </mxGeometry>
                </mxCell>
                <mxCell id="6WHKnQVGSIc18FdkxTux-27" value="RegisterTasksDAO&lt;br&gt;updateTasks()" style="rounded=1;whiteSpace=wrap;html=1;" parent="1" vertex="1">
                    <mxGeometry x="703" y="459" width="110" height="30" as="geometry"/>
                </mxCell>
                <mxCell id="6WHKnQVGSIc18FdkxTux-28" value="Tasks" style="text;html=1;strokeColor=none;fillColor=none;align=center;verticalAlign=middle;whiteSpace=wrap;rounded=0;" parent="1" vertex="1">
                    <mxGeometry x="603" y="442" width="75" height="26" as="geometry"/>
                </mxCell>
                <mxCell id="6WHKnQVGSIc18FdkxTux-30" value="入力値" style="text;html=1;strokeColor=none;fillColor=none;align=center;verticalAlign=middle;whiteSpace=wrap;rounded=0;" parent="1" vertex="1">
                    <mxGeometry x="101" y="498" width="50" height="16" as="geometry"/>
                </mxCell>
                <mxCell id="6WHKnQVGSIc18FdkxTux-31" value="POST" style="text;html=1;strokeColor=none;fillColor=none;align=center;verticalAlign=middle;whiteSpace=wrap;rounded=0;" parent="1" vertex="1">
                    <mxGeometry x="107" y="436" width="40" height="18" as="geometry"/>
                </mxCell>
                <mxCell id="6WHKnQVGSIc18FdkxTux-32" value="リクエストスコープ" style="rounded=1;whiteSpace=wrap;html=1;" parent="1" vertex="1">
                    <mxGeometry x="272" y="572" width="68" height="33" as="geometry"/>
                </mxCell>
                <mxCell id="6WHKnQVGSIc18FdkxTux-33" style="edgeStyle=none;html=1;exitX=0.75;exitY=0;exitDx=0;exitDy=0;endArrow=classic;endFill=1;entryX=0.587;entryY=-0.016;entryDx=0;entryDy=0;entryPerimeter=0;" parent="1" source="6WHKnQVGSIc18FdkxTux-24" target="6WHKnQVGSIc18FdkxTux-24" edge="1">
                    <mxGeometry relative="1" as="geometry">
                        <Array as="points">
                            <mxPoint x="350" y="632"/>
                            <mxPoint x="300" y="602"/>
                        </Array>
                    </mxGeometry>
                </mxCell>
                <mxCell id="6WHKnQVGSIc18FdkxTux-34" value="取得" style="text;html=1;strokeColor=none;fillColor=none;align=center;verticalAlign=middle;whiteSpace=wrap;rounded=0;" parent="1" vertex="1">
                    <mxGeometry x="340" y="602" width="60" height="30" as="geometry"/>
                </mxCell>
                <mxCell id="6WHKnQVGSIc18FdkxTux-35" value="taskList" style="rounded=1;whiteSpace=wrap;html=1;" parent="1" vertex="1">
                    <mxGeometry x="344" y="624" width="60" height="20" as="geometry"/>
                </mxCell>
                <mxCell id="xn0nKUIHmh5stGA5W9Z7-1" value="タスク登録時&lt;br&gt;（基本アーキテクチャ図①）" style="rounded=1;whiteSpace=wrap;html=1;fillColor=#60a917;fontColor=#ffffff;strokeColor=#2D7600;" parent="1" vertex="1">
                    <mxGeometry x="63" y="20" width="170" height="37" as="geometry"/>
                </mxCell>
                <mxCell id="SzAlb_xKaH1YbKuwDHfC-1" value="タスク完了時間追加時&lt;br&gt;（基本アーキテクチャ図②）" style="rounded=1;whiteSpace=wrap;html=1;fillColor=#60a917;fontColor=#ffffff;strokeColor=#2D7600;" parent="1" vertex="1">
                    <mxGeometry x="63" y="370" width="160" height="34" as="geometry"/>
                </mxCell>
                <mxCell id="diQcGM5xMLMC8G2sX60E-1" value="業務終了時&lt;br&gt;（基本アーキテクチャ図③）" style="rounded=1;whiteSpace=wrap;html=1;fillColor=#60a917;fontColor=#ffffff;strokeColor=#2D7600;" parent="1" vertex="1">
                    <mxGeometry x="77" y="860" width="160" height="34" as="geometry"/>
                </mxCell>
                <mxCell id="diQcGM5xMLMC8G2sX60E-2" value="" style="edgeStyle=none;html=1;entryX=0;entryY=0.5;entryDx=0;entryDy=0;endArrow=none;" parent="1" target="6WHKnQVGSIc18FdkxTux-29" edge="1">
                    <mxGeometry relative="1" as="geometry">
                        <mxPoint x="50" y="474" as="sourcePoint"/>
                        <mxPoint x="213" y="475.5" as="targetPoint"/>
                    </mxGeometry>
                </mxCell>
                <mxCell id="6WHKnQVGSIc18FdkxTux-29" value="開始時間&lt;br&gt;終了時間" style="rounded=0;whiteSpace=wrap;html=1;" parent="1" vertex="1">
                    <mxGeometry x="90" y="453.5" width="73" height="41" as="geometry"/>
                </mxCell>
                <mxCell id="x6M6P71ytWI1ECNCbc04-8" style="edgeStyle=none;html=1;exitX=1;exitY=0.25;exitDx=0;exitDy=0;entryX=-0.008;entryY=0.344;entryDx=0;entryDy=0;entryPerimeter=0;endArrow=classic;endFill=1;" parent="1" source="lwMEj6kfu0xdgY6gyI6d-1" target="lwMEj6kfu0xdgY6gyI6d-3" edge="1">
                    <mxGeometry relative="1" as="geometry"/>
                </mxCell>
                <mxCell id="lwMEj6kfu0xdgY6gyI6d-1" value="CompleteTasksServlet" style="rounded=1;whiteSpace=wrap;html=1;" parent="1" vertex="1">
                    <mxGeometry x="218" y="970" width="130" height="30" as="geometry"/>
                </mxCell>
                <mxCell id="lwMEj6kfu0xdgY6gyI6d-2" value="" style="endArrow=classic;html=1;" parent="1" edge="1">
                    <mxGeometry width="50" height="50" relative="1" as="geometry">
                        <mxPoint x="168" y="984.41" as="sourcePoint"/>
                        <mxPoint x="218" y="984.41" as="targetPoint"/>
                    </mxGeometry>
                </mxCell>
                <mxCell id="x6M6P71ytWI1ECNCbc04-6" style="edgeStyle=none;html=1;exitX=1.002;exitY=0.335;exitDx=0;exitDy=0;endArrow=classic;endFill=1;entryX=0;entryY=0.25;entryDx=0;entryDy=0;exitPerimeter=0;" parent="1" source="lwMEj6kfu0xdgY6gyI6d-3" target="x6M6P71ytWI1ECNCbc04-1" edge="1">
                    <mxGeometry relative="1" as="geometry">
                        <mxPoint x="610" y="978" as="targetPoint"/>
                    </mxGeometry>
                </mxCell>
                <mxCell id="x6M6P71ytWI1ECNCbc04-9" style="edgeStyle=none;html=1;exitX=0;exitY=0.75;exitDx=0;exitDy=0;entryX=0.997;entryY=0.874;entryDx=0;entryDy=0;entryPerimeter=0;endArrow=classic;endFill=1;" parent="1" source="lwMEj6kfu0xdgY6gyI6d-3" target="lwMEj6kfu0xdgY6gyI6d-1" edge="1">
                    <mxGeometry relative="1" as="geometry"/>
                </mxCell>
                <mxCell id="lwMEj6kfu0xdgY6gyI6d-3" value="SpentTimeCalcLogic&lt;br&gt;calcSpentTime()" style="rounded=1;whiteSpace=wrap;html=1;" parent="1" vertex="1">
                    <mxGeometry x="453" y="962.5" width="120" height="45" as="geometry"/>
                </mxCell>
                <mxCell id="x6M6P71ytWI1ECNCbc04-5" style="edgeStyle=none;html=1;exitX=1;exitY=0.5;exitDx=0;exitDy=0;entryX=0;entryY=0.5;entryDx=0;entryDy=0;entryPerimeter=0;endArrow=classic;endFill=1;" parent="1" source="x6M6P71ytWI1ECNCbc04-1" target="x6M6P71ytWI1ECNCbc04-2" edge="1">
                    <mxGeometry relative="1" as="geometry"/>
                </mxCell>
                <mxCell id="x6M6P71ytWI1ECNCbc04-7" style="edgeStyle=none;html=1;exitX=0;exitY=0.75;exitDx=0;exitDy=0;entryX=0.998;entryY=0.674;entryDx=0;entryDy=0;endArrow=classic;endFill=1;entryPerimeter=0;" parent="1" source="x6M6P71ytWI1ECNCbc04-1" target="lwMEj6kfu0xdgY6gyI6d-3" edge="1">
                    <mxGeometry relative="1" as="geometry"/>
                </mxCell>
                <mxCell id="x6M6P71ytWI1ECNCbc04-1" value="FindTasksDAO&lt;br&gt;findTodayCompleteTasks()" style="rounded=1;whiteSpace=wrap;html=1;" parent="1" vertex="1">
                    <mxGeometry x="660.5" y="970" width="149.5" height="30" as="geometry"/>
                </mxCell>
                <mxCell id="x6M6P71ytWI1ECNCbc04-2" value="TASKS&lt;br&gt;テーブル" style="shape=cylinder3;whiteSpace=wrap;html=1;boundedLbl=1;backgroundOutline=1;size=15;" parent="1" vertex="1">
                    <mxGeometry x="853" y="940" width="100" height="90" as="geometry"/>
                </mxCell>
                <mxCell id="x6M6P71ytWI1ECNCbc04-10" style="edgeStyle=none;html=1;exitX=1;exitY=0.25;exitDx=0;exitDy=0;entryX=-0.008;entryY=0.344;entryDx=0;entryDy=0;entryPerimeter=0;endArrow=classic;endFill=1;" parent="1" source="x6M6P71ytWI1ECNCbc04-11" target="x6M6P71ytWI1ECNCbc04-15" edge="1">
                    <mxGeometry relative="1" as="geometry"/>
                </mxCell>
                <mxCell id="x6M6P71ytWI1ECNCbc04-11" value="HandleTasksServlet" style="rounded=1;whiteSpace=wrap;html=1;" parent="1" vertex="1">
                    <mxGeometry x="240" y="1720" width="130" height="30" as="geometry"/>
                </mxCell>
                <mxCell id="x6M6P71ytWI1ECNCbc04-12" value="" style="endArrow=classic;html=1;" parent="1" edge="1">
                    <mxGeometry width="50" height="50" relative="1" as="geometry">
                        <mxPoint x="190" y="1734.4099999999999" as="sourcePoint"/>
                        <mxPoint x="240" y="1734.4099999999999" as="targetPoint"/>
                    </mxGeometry>
                </mxCell>
                <mxCell id="x6M6P71ytWI1ECNCbc04-13" style="edgeStyle=none;html=1;exitX=1.002;exitY=0.335;exitDx=0;exitDy=0;endArrow=classic;endFill=1;entryX=0;entryY=0.25;entryDx=0;entryDy=0;exitPerimeter=0;" parent="1" source="x6M6P71ytWI1ECNCbc04-15" target="x6M6P71ytWI1ECNCbc04-18" edge="1">
                    <mxGeometry relative="1" as="geometry">
                        <mxPoint x="632" y="1728" as="targetPoint"/>
                    </mxGeometry>
                </mxCell>
                <mxCell id="x6M6P71ytWI1ECNCbc04-14" style="edgeStyle=none;html=1;exitX=0;exitY=0.75;exitDx=0;exitDy=0;entryX=0.997;entryY=0.874;entryDx=0;entryDy=0;entryPerimeter=0;endArrow=classic;endFill=1;" parent="1" source="x6M6P71ytWI1ECNCbc04-15" target="x6M6P71ytWI1ECNCbc04-11" edge="1">
                    <mxGeometry relative="1" as="geometry"/>
                </mxCell>
                <mxCell id="x6M6P71ytWI1ECNCbc04-15" value="GetRegisterLogic&lt;br&gt;execute()" style="rounded=1;whiteSpace=wrap;html=1;" parent="1" vertex="1">
                    <mxGeometry x="475" y="1712.5" width="120" height="45" as="geometry"/>
                </mxCell>
                <mxCell id="x6M6P71ytWI1ECNCbc04-16" style="edgeStyle=none;html=1;exitX=1;exitY=0.5;exitDx=0;exitDy=0;entryX=0;entryY=0.5;entryDx=0;entryDy=0;entryPerimeter=0;endArrow=classic;endFill=1;" parent="1" source="x6M6P71ytWI1ECNCbc04-18" edge="1">
                    <mxGeometry relative="1" as="geometry">
                        <mxPoint x="874.9999999999998" y="1735" as="targetPoint"/>
                    </mxGeometry>
                </mxCell>
                <mxCell id="x6M6P71ytWI1ECNCbc04-17" style="edgeStyle=none;html=1;exitX=0;exitY=0.75;exitDx=0;exitDy=0;entryX=0.998;entryY=0.674;entryDx=0;entryDy=0;endArrow=classic;endFill=1;entryPerimeter=0;" parent="1" source="x6M6P71ytWI1ECNCbc04-18" target="x6M6P71ytWI1ECNCbc04-15" edge="1">
                    <mxGeometry relative="1" as="geometry"/>
                </mxCell>
                <mxCell id="x6M6P71ytWI1ECNCbc04-18" value="FindTasksDAO&lt;br&gt;findTodayDoTasks()" style="rounded=1;whiteSpace=wrap;html=1;" parent="1" vertex="1">
                    <mxGeometry x="682.5" y="1720" width="149.5" height="30" as="geometry"/>
                </mxCell>
                <mxCell id="x6M6P71ytWI1ECNCbc04-19" value="TASKS&lt;br&gt;テーブル" style="shape=cylinder3;whiteSpace=wrap;html=1;boundedLbl=1;backgroundOutline=1;size=15;" parent="1" vertex="1">
                    <mxGeometry x="880" y="1690" width="100" height="90" as="geometry"/>
                </mxCell>
                <mxCell id="O3NqFF4w2-Joww7FY3OH-1" style="edgeStyle=none;html=1;exitX=1;exitY=0.25;exitDx=0;exitDy=0;entryX=-0.008;entryY=0.344;entryDx=0;entryDy=0;entryPerimeter=0;endArrow=classic;endFill=1;" parent="1" source="O3NqFF4w2-Joww7FY3OH-2" target="O3NqFF4w2-Joww7FY3OH-6" edge="1">
                    <mxGeometry relative="1" as="geometry"/>
                </mxCell>
                <mxCell id="O3NqFF4w2-Joww7FY3OH-2" value="RegisterTasksServlet" style="rounded=1;whiteSpace=wrap;html=1;" parent="1" vertex="1">
                    <mxGeometry x="221" y="1328" width="130" height="30" as="geometry"/>
                </mxCell>
                <mxCell id="O3NqFF4w2-Joww7FY3OH-3" value="" style="endArrow=classic;html=1;" parent="1" edge="1">
                    <mxGeometry width="50" height="50" relative="1" as="geometry">
                        <mxPoint x="171" y="1342.4099999999999" as="sourcePoint"/>
                        <mxPoint x="221" y="1342.4099999999999" as="targetPoint"/>
                    </mxGeometry>
                </mxCell>
                <mxCell id="O3NqFF4w2-Joww7FY3OH-4" style="edgeStyle=none;html=1;exitX=1.002;exitY=0.335;exitDx=0;exitDy=0;endArrow=classic;endFill=1;entryX=0;entryY=0.25;entryDx=0;entryDy=0;exitPerimeter=0;" parent="1" source="O3NqFF4w2-Joww7FY3OH-6" target="O3NqFF4w2-Joww7FY3OH-9" edge="1">
                    <mxGeometry relative="1" as="geometry">
                        <mxPoint x="613" y="1336" as="targetPoint"/>
                    </mxGeometry>
                </mxCell>
                <mxCell id="O3NqFF4w2-Joww7FY3OH-5" style="edgeStyle=none;html=1;exitX=0;exitY=0.75;exitDx=0;exitDy=0;entryX=0.997;entryY=0.874;entryDx=0;entryDy=0;entryPerimeter=0;endArrow=classic;endFill=1;" parent="1" source="O3NqFF4w2-Joww7FY3OH-6" target="O3NqFF4w2-Joww7FY3OH-2" edge="1">
                    <mxGeometry relative="1" as="geometry"/>
                </mxCell>
                <mxCell id="O3NqFF4w2-Joww7FY3OH-6" value="GetRegisterLogic&lt;br&gt;execute()" style="rounded=1;whiteSpace=wrap;html=1;" parent="1" vertex="1">
                    <mxGeometry x="456" y="1320.5" width="120" height="45" as="geometry"/>
                </mxCell>
                <mxCell id="O3NqFF4w2-Joww7FY3OH-7" style="edgeStyle=none;html=1;exitX=1;exitY=0.5;exitDx=0;exitDy=0;entryX=0;entryY=0.5;entryDx=0;entryDy=0;entryPerimeter=0;endArrow=classic;endFill=1;" parent="1" source="O3NqFF4w2-Joww7FY3OH-9" target="O3NqFF4w2-Joww7FY3OH-10" edge="1">
                    <mxGeometry relative="1" as="geometry"/>
                </mxCell>
                <mxCell id="O3NqFF4w2-Joww7FY3OH-8" style="edgeStyle=none;html=1;exitX=0;exitY=0.75;exitDx=0;exitDy=0;entryX=0.998;entryY=0.674;entryDx=0;entryDy=0;endArrow=classic;endFill=1;entryPerimeter=0;" parent="1" source="O3NqFF4w2-Joww7FY3OH-9" target="O3NqFF4w2-Joww7FY3OH-6" edge="1">
                    <mxGeometry relative="1" as="geometry"/>
                </mxCell>
                <mxCell id="O3NqFF4w2-Joww7FY3OH-9" value="FindTasksDAO&lt;br&gt;findTodayRegisterTasks()" style="rounded=1;whiteSpace=wrap;html=1;" parent="1" vertex="1">
                    <mxGeometry x="663.5" y="1328" width="149.5" height="30" as="geometry"/>
                </mxCell>
                <mxCell id="O3NqFF4w2-Joww7FY3OH-10" value="TASKS&lt;br&gt;テーブル" style="shape=cylinder3;whiteSpace=wrap;html=1;boundedLbl=1;backgroundOutline=1;size=15;" parent="1" vertex="1">
                    <mxGeometry x="856" y="1298" width="100" height="90" as="geometry"/>
                </mxCell>
                <mxCell id="7jO07cVMmicOaDeosfsl-1" style="edgeStyle=none;html=1;exitX=0.345;exitY=1.102;exitDx=0;exitDy=0;entryX=0.343;entryY=-0.016;entryDx=0;entryDy=0;exitPerimeter=0;entryPerimeter=0;" parent="1" target="7jO07cVMmicOaDeosfsl-3" edge="1">
                    <mxGeometry relative="1" as="geometry">
                        <Array as="points">
                            <mxPoint x="227" y="1078"/>
                        </Array>
                        <mxPoint x="253.81500000000005" y="1003.3660000000001" as="sourcePoint"/>
                    </mxGeometry>
                </mxCell>
                <mxCell id="7jO07cVMmicOaDeosfsl-2" style="edgeStyle=none;html=1;exitX=0.75;exitY=1;exitDx=0;exitDy=0;endArrow=classic;endFill=1;entryX=0.5;entryY=0;entryDx=0;entryDy=0;" parent="1" target="7jO07cVMmicOaDeosfsl-4" edge="1">
                    <mxGeometry relative="1" as="geometry">
                        <mxPoint x="307" y="1080" as="targetPoint"/>
                        <Array as="points">
                            <mxPoint x="327" y="1022.5"/>
                        </Array>
                        <mxPoint x="305.25" y="1000" as="sourcePoint"/>
                    </mxGeometry>
                </mxCell>
                <mxCell id="7jO07cVMmicOaDeosfsl-12" style="edgeStyle=none;html=1;exitX=0;exitY=0.5;exitDx=0;exitDy=0;endArrow=classic;endFill=1;" parent="1" edge="1">
                    <mxGeometry relative="1" as="geometry">
                        <mxPoint x="147" y="1146.91" as="targetPoint"/>
                        <mxPoint x="210" y="1146.91" as="sourcePoint"/>
                    </mxGeometry>
                </mxCell>
                <mxCell id="7jO07cVMmicOaDeosfsl-3" value="HandleTasks.jsp" style="rounded=1;whiteSpace=wrap;html=1;" parent="1" vertex="1">
                    <mxGeometry x="210" y="1132.5" width="140" height="30" as="geometry"/>
                </mxCell>
                <mxCell id="7jO07cVMmicOaDeosfsl-4" value="リクエストスコープ" style="rounded=1;whiteSpace=wrap;html=1;" parent="1" vertex="1">
                    <mxGeometry x="269" y="1041" width="68" height="33" as="geometry"/>
                </mxCell>
                <mxCell id="7jO07cVMmicOaDeosfsl-5" style="edgeStyle=none;html=1;exitX=0.75;exitY=0;exitDx=0;exitDy=0;endArrow=classic;endFill=1;entryX=0.587;entryY=-0.016;entryDx=0;entryDy=0;entryPerimeter=0;" parent="1" source="7jO07cVMmicOaDeosfsl-3" target="7jO07cVMmicOaDeosfsl-3" edge="1">
                    <mxGeometry relative="1" as="geometry">
                        <Array as="points">
                            <mxPoint x="337" y="1092.5"/>
                            <mxPoint x="292" y="1072.5"/>
                        </Array>
                    </mxGeometry>
                </mxCell>
                <mxCell id="7jO07cVMmicOaDeosfsl-6" value="取得" style="text;html=1;strokeColor=none;fillColor=none;align=center;verticalAlign=middle;whiteSpace=wrap;rounded=0;" parent="1" vertex="1">
                    <mxGeometry x="322" y="1052.5" width="60" height="30" as="geometry"/>
                </mxCell>
                <mxCell id="7jO07cVMmicOaDeosfsl-7" value="taskList" style="rounded=1;whiteSpace=wrap;html=1;" parent="1" vertex="1">
                    <mxGeometry x="322" y="1074" width="60" height="20" as="geometry"/>
                </mxCell>
                <mxCell id="7jO07cVMmicOaDeosfsl-10" value="フォワード" style="text;html=1;strokeColor=none;fillColor=none;align=center;verticalAlign=middle;whiteSpace=wrap;rounded=0;" parent="1" vertex="1">
                    <mxGeometry x="157" y="1054" width="70" height="20" as="geometry"/>
                </mxCell>
                <mxCell id="7jO07cVMmicOaDeosfsl-22" style="edgeStyle=none;html=1;exitX=0.345;exitY=1.102;exitDx=0;exitDy=0;entryX=0.343;entryY=-0.016;entryDx=0;entryDy=0;exitPerimeter=0;entryPerimeter=0;" parent="1" target="7jO07cVMmicOaDeosfsl-25" edge="1">
                    <mxGeometry relative="1" as="geometry">
                        <Array as="points">
                            <mxPoint x="231" y="1436"/>
                        </Array>
                        <mxPoint x="257.81500000000005" y="1361.366" as="sourcePoint"/>
                    </mxGeometry>
                </mxCell>
                <mxCell id="7jO07cVMmicOaDeosfsl-23" style="edgeStyle=none;html=1;exitX=0.75;exitY=1;exitDx=0;exitDy=0;endArrow=classic;endFill=1;entryX=0.5;entryY=0;entryDx=0;entryDy=0;" parent="1" target="7jO07cVMmicOaDeosfsl-26" edge="1">
                    <mxGeometry relative="1" as="geometry">
                        <mxPoint x="311" y="1438" as="targetPoint"/>
                        <Array as="points">
                            <mxPoint x="331" y="1380.5"/>
                        </Array>
                        <mxPoint x="309.25" y="1358" as="sourcePoint"/>
                    </mxGeometry>
                </mxCell>
                <mxCell id="7jO07cVMmicOaDeosfsl-24" style="edgeStyle=none;html=1;exitX=0;exitY=0.5;exitDx=0;exitDy=0;endArrow=classic;endFill=1;" parent="1" source="7jO07cVMmicOaDeosfsl-25" edge="1">
                    <mxGeometry relative="1" as="geometry">
                        <mxPoint x="151" y="1505.5" as="targetPoint"/>
                    </mxGeometry>
                </mxCell>
                <mxCell id="7jO07cVMmicOaDeosfsl-25" value="RegisterTasks.jsp" style="rounded=1;whiteSpace=wrap;html=1;" parent="1" vertex="1">
                    <mxGeometry x="214" y="1490.5" width="140" height="30" as="geometry"/>
                </mxCell>
                <mxCell id="7jO07cVMmicOaDeosfsl-26" value="リクエストスコープ" style="rounded=1;whiteSpace=wrap;html=1;" parent="1" vertex="1">
                    <mxGeometry x="273" y="1399" width="68" height="33" as="geometry"/>
                </mxCell>
                <mxCell id="7jO07cVMmicOaDeosfsl-27" style="edgeStyle=none;html=1;exitX=0.75;exitY=0;exitDx=0;exitDy=0;endArrow=classic;endFill=1;entryX=0.587;entryY=-0.016;entryDx=0;entryDy=0;entryPerimeter=0;" parent="1" source="7jO07cVMmicOaDeosfsl-25" target="7jO07cVMmicOaDeosfsl-25" edge="1">
                    <mxGeometry relative="1" as="geometry">
                        <Array as="points">
                            <mxPoint x="341" y="1450.5"/>
                            <mxPoint x="296" y="1430.5"/>
                        </Array>
                    </mxGeometry>
                </mxCell>
                <mxCell id="7jO07cVMmicOaDeosfsl-28" value="取得" style="text;html=1;strokeColor=none;fillColor=none;align=center;verticalAlign=middle;whiteSpace=wrap;rounded=0;" parent="1" vertex="1">
                    <mxGeometry x="326" y="1410.5" width="60" height="30" as="geometry"/>
                </mxCell>
                <mxCell id="7jO07cVMmicOaDeosfsl-29" value="taskList" style="rounded=1;whiteSpace=wrap;html=1;" parent="1" vertex="1">
                    <mxGeometry x="326" y="1432" width="60" height="20" as="geometry"/>
                </mxCell>
                <mxCell id="7jO07cVMmicOaDeosfsl-30" value="フォワード" style="text;html=1;strokeColor=none;fillColor=none;align=center;verticalAlign=middle;whiteSpace=wrap;rounded=0;" parent="1" vertex="1">
                    <mxGeometry x="161" y="1412" width="70" height="20" as="geometry"/>
                </mxCell>
                <mxCell id="7jO07cVMmicOaDeosfsl-31" style="edgeStyle=none;html=1;exitX=0.345;exitY=1.102;exitDx=0;exitDy=0;entryX=0.343;entryY=-0.016;entryDx=0;entryDy=0;exitPerimeter=0;entryPerimeter=0;" parent="1" target="7jO07cVMmicOaDeosfsl-34" edge="1">
                    <mxGeometry relative="1" as="geometry">
                        <Array as="points">
                            <mxPoint x="246.5" y="1824.63"/>
                        </Array>
                        <mxPoint x="273.31500000000005" y="1749.996" as="sourcePoint"/>
                    </mxGeometry>
                </mxCell>
                <mxCell id="7jO07cVMmicOaDeosfsl-32" style="edgeStyle=none;html=1;exitX=0.581;exitY=1.062;exitDx=0;exitDy=0;endArrow=classic;endFill=1;entryX=0.5;entryY=0;entryDx=0;entryDy=0;exitPerimeter=0;" parent="1" source="x6M6P71ytWI1ECNCbc04-11" target="7jO07cVMmicOaDeosfsl-35" edge="1">
                    <mxGeometry relative="1" as="geometry">
                        <mxPoint x="562.5" y="1837.5" as="targetPoint"/>
                        <Array as="points">
                            <mxPoint x="340" y="1770"/>
                        </Array>
                        <mxPoint x="560.75" y="1757.5" as="sourcePoint"/>
                    </mxGeometry>
                </mxCell>
                <mxCell id="7jO07cVMmicOaDeosfsl-33" style="edgeStyle=none;html=1;exitX=0;exitY=0.5;exitDx=0;exitDy=0;endArrow=classic;endFill=1;" parent="1" source="7jO07cVMmicOaDeosfsl-34" edge="1">
                    <mxGeometry relative="1" as="geometry">
                        <mxPoint x="166.5" y="1894.13" as="targetPoint"/>
                    </mxGeometry>
                </mxCell>
                <mxCell id="7jO07cVMmicOaDeosfsl-34" value="HandleTasks.jsp" style="rounded=1;whiteSpace=wrap;html=1;" parent="1" vertex="1">
                    <mxGeometry x="229.5" y="1879.13" width="140" height="30" as="geometry"/>
                </mxCell>
                <mxCell id="7jO07cVMmicOaDeosfsl-35" value="リクエストスコープ" style="rounded=1;whiteSpace=wrap;html=1;" parent="1" vertex="1">
                    <mxGeometry x="288.5" y="1787.63" width="68" height="33" as="geometry"/>
                </mxCell>
                <mxCell id="7jO07cVMmicOaDeosfsl-36" style="edgeStyle=none;html=1;exitX=0.75;exitY=0;exitDx=0;exitDy=0;endArrow=classic;endFill=1;entryX=0.587;entryY=-0.016;entryDx=0;entryDy=0;entryPerimeter=0;" parent="1" source="7jO07cVMmicOaDeosfsl-34" target="7jO07cVMmicOaDeosfsl-34" edge="1">
                    <mxGeometry relative="1" as="geometry">
                        <Array as="points">
                            <mxPoint x="356.5" y="1839.13"/>
                            <mxPoint x="311.5" y="1819.13"/>
                        </Array>
                    </mxGeometry>
                </mxCell>
                <mxCell id="7jO07cVMmicOaDeosfsl-37" value="取得" style="text;html=1;strokeColor=none;fillColor=none;align=center;verticalAlign=middle;whiteSpace=wrap;rounded=0;" parent="1" vertex="1">
                    <mxGeometry x="341.5" y="1799.13" width="60" height="30" as="geometry"/>
                </mxCell>
                <mxCell id="7jO07cVMmicOaDeosfsl-38" value="taskList" style="rounded=1;whiteSpace=wrap;html=1;" parent="1" vertex="1">
                    <mxGeometry x="341.5" y="1820.63" width="60" height="20" as="geometry"/>
                </mxCell>
                <mxCell id="7jO07cVMmicOaDeosfsl-39" value="フォワード" style="text;html=1;strokeColor=none;fillColor=none;align=center;verticalAlign=middle;whiteSpace=wrap;rounded=0;" parent="1" vertex="1">
                    <mxGeometry x="176.5" y="1800.63" width="70" height="20" as="geometry"/>
                </mxCell>
                <mxCell id="7jO07cVMmicOaDeosfsl-40" value="タスク登録一覧表示&lt;br&gt;（基本アーキテクチャ図④）" style="rounded=1;whiteSpace=wrap;html=1;fillColor=#60a917;fontColor=#ffffff;strokeColor=#2D7600;" parent="1" vertex="1">
                    <mxGeometry x="77" y="1270" width="160" height="34" as="geometry"/>
                </mxCell>
                <mxCell id="7jO07cVMmicOaDeosfsl-41" value="業務開始時&lt;br&gt;（基本アーキテクチャ図⑤）" style="rounded=1;whiteSpace=wrap;html=1;fillColor=#60a917;fontColor=#ffffff;strokeColor=#2D7600;" parent="1" vertex="1">
                    <mxGeometry x="77" y="1678.5" width="160" height="34" as="geometry"/>
                </mxCell>
            </root>
        </mxGraphModel>
    </diagram>
</mxfile>